<mxfile host="app.diagrams.net" agent="Mozilla/5.0 (Macintosh; Intel Mac OS X 10_15_7) AppleWebKit/537.36 (KHTML, like Gecko) Chrome/138.0.0.0 Safari/537.36" version="28.0.6">
  <diagram name="Page-1" id="cK1lMOBmyjswMixzVWH3">
    <mxGraphModel dx="2685" dy="1160" grid="0" gridSize="10" guides="1" tooltips="1" connect="1" arrows="1" fold="1" page="0" pageScale="1" pageWidth="827" pageHeight="1169" background="#ffffff" math="0" shadow="0">
      <root>
        <mxCell id="0" />
        <mxCell id="1" parent="0" />
        <mxCell id="vIerb1oqOkuDAjDOQs4c-2" value="AWS Account" style="points=[[0,0],[0.25,0],[0.5,0],[0.75,0],[1,0],[1,0.25],[1,0.5],[1,0.75],[1,1],[0.75,1],[0.5,1],[0.25,1],[0,1],[0,0.75],[0,0.5],[0,0.25]];outlineConnect=0;gradientColor=none;html=1;whiteSpace=wrap;fontSize=12;fontStyle=0;container=1;pointerEvents=0;collapsible=0;recursiveResize=0;shape=mxgraph.aws4.group;grIcon=mxgraph.aws4.group_account;strokeColor=#CD2264;fillColor=none;verticalAlign=top;align=left;spacingLeft=30;fontColor=#CD2264;dashed=0;" parent="1" vertex="1">
          <mxGeometry x="321" y="110" width="1101" height="926" as="geometry" />
        </mxCell>
        <mxCell id="vIerb1oqOkuDAjDOQs4c-3" value="App VPC" style="points=[[0,0],[0.25,0],[0.5,0],[0.75,0],[1,0],[1,0.25],[1,0.5],[1,0.75],[1,1],[0.75,1],[0.5,1],[0.25,1],[0,1],[0,0.75],[0,0.5],[0,0.25]];outlineConnect=0;gradientColor=none;html=1;whiteSpace=wrap;fontSize=12;fontStyle=0;container=1;pointerEvents=0;collapsible=0;recursiveResize=0;shape=mxgraph.aws4.group;grIcon=mxgraph.aws4.group_vpc2;strokeColor=#8C4FFF;fillColor=none;verticalAlign=top;align=left;spacingLeft=30;fontColor=#AAB7B8;dashed=0;" parent="vIerb1oqOkuDAjDOQs4c-2" vertex="1">
          <mxGeometry x="241" y="60" width="771" height="825" as="geometry" />
        </mxCell>
        <mxCell id="vIerb1oqOkuDAjDOQs4c-230" value="Availability zone" style="sketch=0;outlineConnect=0;gradientColor=none;html=1;whiteSpace=wrap;fontSize=12;fontStyle=0;shape=mxgraph.aws4.group;grIcon=mxgraph.aws4.group_availability_zone;strokeColor=#545B64;fillColor=none;verticalAlign=top;align=left;spacingLeft=30;fontColor=#545B64;dashed=1;" parent="vIerb1oqOkuDAjDOQs4c-3" vertex="1">
          <mxGeometry x="40" y="28" width="696" height="237" as="geometry" />
        </mxCell>
        <mxCell id="vIerb1oqOkuDAjDOQs4c-229" value="Public subnet" style="points=[[0,0],[0.25,0],[0.5,0],[0.75,0],[1,0],[1,0.25],[1,0.5],[1,0.75],[1,1],[0.75,1],[0.5,1],[0.25,1],[0,1],[0,0.75],[0,0.5],[0,0.25]];outlineConnect=0;gradientColor=none;html=1;whiteSpace=wrap;fontSize=12;fontStyle=0;container=1;pointerEvents=0;collapsible=0;recursiveResize=0;shape=mxgraph.aws4.group;grIcon=mxgraph.aws4.group_security_group;grStroke=0;strokeColor=#7AA116;fillColor=#F2F6E8;verticalAlign=top;align=left;spacingLeft=30;fontColor=#248814;dashed=0;" parent="vIerb1oqOkuDAjDOQs4c-3" vertex="1">
          <mxGeometry x="182" y="39" width="187" height="208" as="geometry" />
        </mxCell>
        <mxCell id="vIerb1oqOkuDAjDOQs4c-214" value="ALB" style="outlineConnect=0;dashed=0;verticalLabelPosition=bottom;verticalAlign=top;align=center;html=1;shape=mxgraph.aws3.application_load_balancer;fillColor=#F58534;gradientColor=none;" parent="vIerb1oqOkuDAjDOQs4c-229" vertex="1">
          <mxGeometry x="71" y="28" width="55" height="60" as="geometry" />
        </mxCell>
        <mxCell id="vIerb1oqOkuDAjDOQs4c-239" style="edgeStyle=orthogonalEdgeStyle;rounded=0;orthogonalLoop=1;jettySize=auto;html=1;flowAnimation=1;" parent="vIerb1oqOkuDAjDOQs4c-3" source="vIerb1oqOkuDAjDOQs4c-17" target="vIerb1oqOkuDAjDOQs4c-233" edge="1">
          <mxGeometry relative="1" as="geometry">
            <Array as="points">
              <mxPoint x="646" y="187" />
            </Array>
          </mxGeometry>
        </mxCell>
        <mxCell id="vIerb1oqOkuDAjDOQs4c-16" value="Private subnet" style="points=[[0,0],[0.25,0],[0.5,0],[0.75,0],[1,0],[1,0.25],[1,0.5],[1,0.75],[1,1],[0.75,1],[0.5,1],[0.25,1],[0,1],[0,0.75],[0,0.5],[0,0.25]];outlineConnect=0;gradientColor=none;html=1;whiteSpace=wrap;fontSize=12;fontStyle=0;container=1;pointerEvents=0;collapsible=0;recursiveResize=0;shape=mxgraph.aws4.group;grIcon=mxgraph.aws4.group_security_group;grStroke=0;strokeColor=#00A4A6;fillColor=#E6F6F7;verticalAlign=top;align=left;spacingLeft=30;fontColor=#147EBA;dashed=0;" parent="vIerb1oqOkuDAjDOQs4c-3" vertex="1">
          <mxGeometry x="580" y="40" width="120" height="120" as="geometry" />
        </mxCell>
        <mxCell id="vIerb1oqOkuDAjDOQs4c-17" value="MCP Server&amp;nbsp;&lt;div&gt;ECS Task&lt;/div&gt;" style="outlineConnect=0;dashed=0;verticalLabelPosition=bottom;verticalAlign=top;align=center;html=1;shape=mxgraph.aws3.ecs;fillColor=#F58534;gradientColor=none;" parent="vIerb1oqOkuDAjDOQs4c-16" vertex="1">
          <mxGeometry x="44.5" y="36" width="43.5" height="39.75" as="geometry" />
        </mxCell>
        <mxCell id="vIerb1oqOkuDAjDOQs4c-218" value="8080" style="text;html=1;align=center;verticalAlign=middle;resizable=0;points=[];autosize=1;strokeColor=none;fillColor=none;" parent="vIerb1oqOkuDAjDOQs4c-3" vertex="1">
          <mxGeometry x="525" y="63.25" width="50" height="30" as="geometry" />
        </mxCell>
        <mxCell id="vIerb1oqOkuDAjDOQs4c-234" style="edgeStyle=orthogonalEdgeStyle;rounded=0;orthogonalLoop=1;jettySize=auto;html=1;flowAnimation=1;" parent="vIerb1oqOkuDAjDOQs4c-3" source="vIerb1oqOkuDAjDOQs4c-214" target="vIerb1oqOkuDAjDOQs4c-17" edge="1">
          <mxGeometry relative="1" as="geometry" />
        </mxCell>
        <mxCell id="vIerb1oqOkuDAjDOQs4c-233" value="NAT GW" style="sketch=0;outlineConnect=0;fontColor=#232F3E;gradientColor=none;fillColor=#8C4FFF;strokeColor=none;dashed=0;verticalLabelPosition=bottom;verticalAlign=top;align=center;html=1;fontSize=12;fontStyle=0;aspect=fixed;pointerEvents=1;shape=mxgraph.aws4.nat_gateway;" parent="vIerb1oqOkuDAjDOQs4c-3" vertex="1">
          <mxGeometry x="258" y="161" width="52" height="52" as="geometry" />
        </mxCell>
        <mxCell id="vIerb1oqOkuDAjDOQs4c-243" value="Availability zone" style="sketch=0;outlineConnect=0;gradientColor=none;html=1;whiteSpace=wrap;fontSize=12;fontStyle=0;shape=mxgraph.aws4.group;grIcon=mxgraph.aws4.group_availability_zone;strokeColor=#545B64;fillColor=none;verticalAlign=top;align=left;spacingLeft=30;fontColor=#545B64;dashed=1;" parent="vIerb1oqOkuDAjDOQs4c-3" vertex="1">
          <mxGeometry x="37.5" y="309" width="696" height="237" as="geometry" />
        </mxCell>
        <mxCell id="vIerb1oqOkuDAjDOQs4c-244" value="Public subnet" style="points=[[0,0],[0.25,0],[0.5,0],[0.75,0],[1,0],[1,0.25],[1,0.5],[1,0.75],[1,1],[0.75,1],[0.5,1],[0.25,1],[0,1],[0,0.75],[0,0.5],[0,0.25]];outlineConnect=0;gradientColor=none;html=1;whiteSpace=wrap;fontSize=12;fontStyle=0;container=1;pointerEvents=0;collapsible=0;recursiveResize=0;shape=mxgraph.aws4.group;grIcon=mxgraph.aws4.group_security_group;grStroke=0;strokeColor=#7AA116;fillColor=#F2F6E8;verticalAlign=top;align=left;spacingLeft=30;fontColor=#248814;dashed=0;" parent="vIerb1oqOkuDAjDOQs4c-3" vertex="1">
          <mxGeometry x="179.5" y="320" width="187" height="208" as="geometry" />
        </mxCell>
        <mxCell id="vIerb1oqOkuDAjDOQs4c-245" value="ALB" style="outlineConnect=0;dashed=0;verticalLabelPosition=bottom;verticalAlign=top;align=center;html=1;shape=mxgraph.aws3.application_load_balancer;fillColor=#F58534;gradientColor=none;" parent="vIerb1oqOkuDAjDOQs4c-244" vertex="1">
          <mxGeometry x="71" y="28" width="55" height="60" as="geometry" />
        </mxCell>
        <mxCell id="vIerb1oqOkuDAjDOQs4c-246" style="edgeStyle=orthogonalEdgeStyle;rounded=0;orthogonalLoop=1;jettySize=auto;html=1;flowAnimation=1;" parent="vIerb1oqOkuDAjDOQs4c-3" source="vIerb1oqOkuDAjDOQs4c-248" target="vIerb1oqOkuDAjDOQs4c-251" edge="1">
          <mxGeometry relative="1" as="geometry">
            <Array as="points">
              <mxPoint x="643.5" y="468" />
            </Array>
          </mxGeometry>
        </mxCell>
        <mxCell id="vIerb1oqOkuDAjDOQs4c-247" value="Private subnet" style="points=[[0,0],[0.25,0],[0.5,0],[0.75,0],[1,0],[1,0.25],[1,0.5],[1,0.75],[1,1],[0.75,1],[0.5,1],[0.25,1],[0,1],[0,0.75],[0,0.5],[0,0.25]];outlineConnect=0;gradientColor=none;html=1;whiteSpace=wrap;fontSize=12;fontStyle=0;container=1;pointerEvents=0;collapsible=0;recursiveResize=0;shape=mxgraph.aws4.group;grIcon=mxgraph.aws4.group_security_group;grStroke=0;strokeColor=#00A4A6;fillColor=#E6F6F7;verticalAlign=top;align=left;spacingLeft=30;fontColor=#147EBA;dashed=0;" parent="vIerb1oqOkuDAjDOQs4c-3" vertex="1">
          <mxGeometry x="577.5" y="321" width="120" height="120" as="geometry" />
        </mxCell>
        <mxCell id="vIerb1oqOkuDAjDOQs4c-248" value="MCP Server&amp;nbsp;&lt;div&gt;ECS Task&lt;/div&gt;" style="outlineConnect=0;dashed=0;verticalLabelPosition=bottom;verticalAlign=top;align=center;html=1;shape=mxgraph.aws3.ecs;fillColor=#F58534;gradientColor=none;" parent="vIerb1oqOkuDAjDOQs4c-247" vertex="1">
          <mxGeometry x="44.5" y="36" width="43.5" height="39.75" as="geometry" />
        </mxCell>
        <mxCell id="vIerb1oqOkuDAjDOQs4c-249" value="8080" style="text;html=1;align=center;verticalAlign=middle;resizable=0;points=[];autosize=1;strokeColor=none;fillColor=none;" parent="vIerb1oqOkuDAjDOQs4c-3" vertex="1">
          <mxGeometry x="522.5" y="344.25" width="50" height="30" as="geometry" />
        </mxCell>
        <mxCell id="vIerb1oqOkuDAjDOQs4c-250" style="edgeStyle=orthogonalEdgeStyle;rounded=0;orthogonalLoop=1;jettySize=auto;html=1;flowAnimation=1;" parent="vIerb1oqOkuDAjDOQs4c-3" source="vIerb1oqOkuDAjDOQs4c-245" target="vIerb1oqOkuDAjDOQs4c-248" edge="1">
          <mxGeometry relative="1" as="geometry" />
        </mxCell>
        <mxCell id="vIerb1oqOkuDAjDOQs4c-251" value="NAT GW" style="sketch=0;outlineConnect=0;fontColor=#232F3E;gradientColor=none;fillColor=#8C4FFF;strokeColor=none;dashed=0;verticalLabelPosition=bottom;verticalAlign=top;align=center;html=1;fontSize=12;fontStyle=0;aspect=fixed;pointerEvents=1;shape=mxgraph.aws4.nat_gateway;" parent="vIerb1oqOkuDAjDOQs4c-3" vertex="1">
          <mxGeometry x="255.5" y="442" width="52" height="52" as="geometry" />
        </mxCell>
        <mxCell id="vIerb1oqOkuDAjDOQs4c-252" value="Availability zone" style="sketch=0;outlineConnect=0;gradientColor=none;html=1;whiteSpace=wrap;fontSize=12;fontStyle=0;shape=mxgraph.aws4.group;grIcon=mxgraph.aws4.group_availability_zone;strokeColor=#545B64;fillColor=none;verticalAlign=top;align=left;spacingLeft=30;fontColor=#545B64;dashed=1;" parent="vIerb1oqOkuDAjDOQs4c-3" vertex="1">
          <mxGeometry x="35" y="575" width="696" height="237" as="geometry" />
        </mxCell>
        <mxCell id="vIerb1oqOkuDAjDOQs4c-253" value="Public subnet" style="points=[[0,0],[0.25,0],[0.5,0],[0.75,0],[1,0],[1,0.25],[1,0.5],[1,0.75],[1,1],[0.75,1],[0.5,1],[0.25,1],[0,1],[0,0.75],[0,0.5],[0,0.25]];outlineConnect=0;gradientColor=none;html=1;whiteSpace=wrap;fontSize=12;fontStyle=0;container=1;pointerEvents=0;collapsible=0;recursiveResize=0;shape=mxgraph.aws4.group;grIcon=mxgraph.aws4.group_security_group;grStroke=0;strokeColor=#7AA116;fillColor=#F2F6E8;verticalAlign=top;align=left;spacingLeft=30;fontColor=#248814;dashed=0;" parent="vIerb1oqOkuDAjDOQs4c-3" vertex="1">
          <mxGeometry x="177" y="586" width="187" height="208" as="geometry" />
        </mxCell>
        <mxCell id="vIerb1oqOkuDAjDOQs4c-254" value="ALB" style="outlineConnect=0;dashed=0;verticalLabelPosition=bottom;verticalAlign=top;align=center;html=1;shape=mxgraph.aws3.application_load_balancer;fillColor=#F58534;gradientColor=none;" parent="vIerb1oqOkuDAjDOQs4c-253" vertex="1">
          <mxGeometry x="71" y="28" width="55" height="60" as="geometry" />
        </mxCell>
        <mxCell id="vIerb1oqOkuDAjDOQs4c-255" style="edgeStyle=orthogonalEdgeStyle;rounded=0;orthogonalLoop=1;jettySize=auto;html=1;flowAnimation=1;" parent="vIerb1oqOkuDAjDOQs4c-3" source="vIerb1oqOkuDAjDOQs4c-257" target="vIerb1oqOkuDAjDOQs4c-260" edge="1">
          <mxGeometry relative="1" as="geometry">
            <Array as="points">
              <mxPoint x="641" y="734" />
            </Array>
          </mxGeometry>
        </mxCell>
        <mxCell id="vIerb1oqOkuDAjDOQs4c-256" value="Private subnet" style="points=[[0,0],[0.25,0],[0.5,0],[0.75,0],[1,0],[1,0.25],[1,0.5],[1,0.75],[1,1],[0.75,1],[0.5,1],[0.25,1],[0,1],[0,0.75],[0,0.5],[0,0.25]];outlineConnect=0;gradientColor=none;html=1;whiteSpace=wrap;fontSize=12;fontStyle=0;container=1;pointerEvents=0;collapsible=0;recursiveResize=0;shape=mxgraph.aws4.group;grIcon=mxgraph.aws4.group_security_group;grStroke=0;strokeColor=#00A4A6;fillColor=#E6F6F7;verticalAlign=top;align=left;spacingLeft=30;fontColor=#147EBA;dashed=0;" parent="vIerb1oqOkuDAjDOQs4c-3" vertex="1">
          <mxGeometry x="575" y="587" width="120" height="120" as="geometry" />
        </mxCell>
        <mxCell id="vIerb1oqOkuDAjDOQs4c-257" value="MCP Server&amp;nbsp;&lt;div&gt;ECS Task&lt;/div&gt;" style="outlineConnect=0;dashed=0;verticalLabelPosition=bottom;verticalAlign=top;align=center;html=1;shape=mxgraph.aws3.ecs;fillColor=#F58534;gradientColor=none;" parent="vIerb1oqOkuDAjDOQs4c-256" vertex="1">
          <mxGeometry x="44.5" y="36" width="43.5" height="39.75" as="geometry" />
        </mxCell>
        <mxCell id="vIerb1oqOkuDAjDOQs4c-258" value="8080" style="text;html=1;align=center;verticalAlign=middle;resizable=0;points=[];autosize=1;strokeColor=none;fillColor=none;" parent="vIerb1oqOkuDAjDOQs4c-3" vertex="1">
          <mxGeometry x="520" y="610.25" width="50" height="30" as="geometry" />
        </mxCell>
        <mxCell id="vIerb1oqOkuDAjDOQs4c-259" style="edgeStyle=orthogonalEdgeStyle;rounded=0;orthogonalLoop=1;jettySize=auto;html=1;flowAnimation=1;" parent="vIerb1oqOkuDAjDOQs4c-3" source="vIerb1oqOkuDAjDOQs4c-254" target="vIerb1oqOkuDAjDOQs4c-257" edge="1">
          <mxGeometry relative="1" as="geometry" />
        </mxCell>
        <mxCell id="vIerb1oqOkuDAjDOQs4c-260" value="NAT GW" style="sketch=0;outlineConnect=0;fontColor=#232F3E;gradientColor=none;fillColor=#8C4FFF;strokeColor=none;dashed=0;verticalLabelPosition=bottom;verticalAlign=top;align=center;html=1;fontSize=12;fontStyle=0;aspect=fixed;pointerEvents=1;shape=mxgraph.aws4.nat_gateway;" parent="vIerb1oqOkuDAjDOQs4c-3" vertex="1">
          <mxGeometry x="253" y="708" width="52" height="52" as="geometry" />
        </mxCell>
        <mxCell id="vIerb1oqOkuDAjDOQs4c-264" value="Route 53&lt;div&gt;&lt;br&gt;&lt;/div&gt;" style="outlineConnect=0;dashed=0;verticalLabelPosition=bottom;verticalAlign=top;align=center;html=1;shape=mxgraph.aws3.route_53;fillColor=#F58536;gradientColor=none;" parent="vIerb1oqOkuDAjDOQs4c-2" vertex="1">
          <mxGeometry x="-37" y="395.25" width="70.5" height="85.5" as="geometry" />
        </mxCell>
        <mxCell id="vIerb1oqOkuDAjDOQs4c-268" style="edgeStyle=orthogonalEdgeStyle;rounded=0;orthogonalLoop=1;jettySize=auto;html=1;flowAnimation=1;" parent="vIerb1oqOkuDAjDOQs4c-2" source="vIerb1oqOkuDAjDOQs4c-264" target="vIerb1oqOkuDAjDOQs4c-245" edge="1">
          <mxGeometry relative="1" as="geometry" />
        </mxCell>
        <mxCell id="vIerb1oqOkuDAjDOQs4c-270" style="edgeStyle=orthogonalEdgeStyle;rounded=0;orthogonalLoop=1;jettySize=auto;html=1;entryX=0;entryY=0.5;entryDx=0;entryDy=0;entryPerimeter=0;flowAnimation=1;" parent="vIerb1oqOkuDAjDOQs4c-2" source="vIerb1oqOkuDAjDOQs4c-264" target="vIerb1oqOkuDAjDOQs4c-214" edge="1">
          <mxGeometry relative="1" as="geometry">
            <Array as="points">
              <mxPoint x="107" y="438" />
              <mxPoint x="107" y="157" />
            </Array>
          </mxGeometry>
        </mxCell>
        <mxCell id="vIerb1oqOkuDAjDOQs4c-271" style="edgeStyle=orthogonalEdgeStyle;rounded=0;orthogonalLoop=1;jettySize=auto;html=1;entryX=0;entryY=0.5;entryDx=0;entryDy=0;entryPerimeter=0;flowAnimation=1;" parent="vIerb1oqOkuDAjDOQs4c-2" source="vIerb1oqOkuDAjDOQs4c-264" target="vIerb1oqOkuDAjDOQs4c-254" edge="1">
          <mxGeometry relative="1" as="geometry">
            <Array as="points">
              <mxPoint x="108" y="438" />
              <mxPoint x="108" y="704" />
            </Array>
          </mxGeometry>
        </mxCell>
        <mxCell id="vIerb1oqOkuDAjDOQs4c-235" value="GitHub Copilot" style="shape=image;verticalLabelPosition=bottom;labelBackgroundColor=default;verticalAlign=top;aspect=fixed;imageAspect=0;image=data:image/png,iVBORw0KGgoAAAANSUhEUgAABAAAAAQACAYAAAB/HSuDAAAACXBIWXMAAAsTAAALEwEAmpwYAAAgAElEQVR4nOzddfhtZZn/8Q9dCqIgBrZjYmJijCh2jIWOitg4JtZvGHUcwcSWMbHFxhYbY2xHxcbALkBREKTjnN+19NE5Ah6+sfd+7rX363Vd7/+M811xr7X3XpEAAAAAAAAAAAAAAAAAAAAAAAAAAAAAAAAAAAAAAAAAAAAAAAAAAAAAAAAAAAAAAAAAAAAAAAAAAAAAAAAAAAAAAAAAAAAAAAAAAAAAAAAAAAAAAAAAAAAAAAAAAAAAAAAAAAAAAAAAAAAAAAAAAAAAAAAAAAAAAAAAAAAAAAAAAAAAAAAAAAAAAAAAAAAAAAAAAAAAAAAAAAAAAAAAAAAAAAAAAAAAAAAAAAAAAAAAAAAAAAAAAAAAAAAAAAAAAAAAAAAAAAAAAAAAAAAAAAAAAAAAAAAAAAAAAAAAAAAAAAAAAAAAAAAAAAAAAAAAAAAAAAAAAAAAAAAAAAAAAAAAAAAAAAAAAAAAAAAAAAAAAAAAAAAAAAAAAAAAAAAAAAAAAAAAAAAAAAAAAAAAAAAAAAAAAAAAAAAAAAAAAAAAAAAAAAAAAAAAAAAAAAAAAAAAAAAAAAAAAAAAAAAAAAAAAAAAAAAAAAAAAAAAAAAAAAAAAAAAAAAAAAAAAAAAAAAAAAAAAAAAAAAAAAAAAAAAAAAAAAAAAAAAAAAAAAAAAAAAAAAAAMCi2STJtkkumOSy63TtJDu3dk2yW+vOSXZfYnde57+36zr/e9c+2//Xtq2Ney8MAAAAqGj40HyFJLskuWOSByR5VJL/SLJ/kpcmeX2Sg5McmuSLSb6d5CdJjk1yWpK1xTo1yR/av/Fb7d98aPsbXt/+pv3b3/io9jffsS2DK7RlAgAAAGVtmORiSa6Z5NZJ7p3k0UmeluTlSd6Z5H+SfDfJUUnOKPBhvWpntGX03bbM3tWW4bAs905yn7aMr9WW+bDsAQAAYCKGX6av2i6H3yvJvkkObL9uH57kpAIfnBe54YqIr7UrDQ5Isk+7jeHG7TaFjXpvQAAAAPS3RZKrtUvRH57kWUkOar8+/7hd1t77A65W16nttoTPJHlTW8ePaOt8WPdb9t4IAQAAmNwv+Du3X4X3WefX++FD4VkFPqCq1lUE+7crPXZrVxAAAABQzMXWuUz/gHU+5Pf+cKn5+HLgoHVuLxhuCXFrAQAAwBRtkOQySe6U5MlJ3pbk60lOLvBBUYvVKUm+keTtSf6zvTrxsm0bBQAAYBm2aZfu77nOL/rHFPjgJ62v09rDIf96xcDwrIEdeu9MAAAAVQwfkG7Xfkl9b5JfFPggJ02yXyZ5X5KntG39Ir13OgAAgFk8lO/G7b3uB7VfS3t/OJN6dGSSQ9qrJYcrBTx0EAAAGK2N22X8PuxLy/9SYLf2qkoAAICST+K/Y3uV2ufbg9J6f6CSxtwZ7YuzA9vzMIY3EHjQIAAAMFMbJrl6kkcleWeSowp8WJIWoaOTvCvJo5Ncs+2LAAAAE7NR+/VxryQHJ/l9gQ9CkpI/tbdk/PW2gc16DwsAAGB8H/hvkORJST7aPmT0/qAj6bw7McnH2xsHdmnP4gAAAPg7l13nF/5jC3yQkTSZLwSGKwT2aQ/l9AwBAABYQNsl2b09YOxnBT6oSJrNMwQObl/27dh7CAEAANO7rP8mSZ6d5BtJ1hT4MCKpX8MM+HaS5ya5mdsFAABg3C60zq/8Rxf4wCGp9u0Ch7SrA4bXegIAAMVdtd3vO9z3e3qBDxWSxtdZSb6WZP8kN/a6QQAAqGHTJLdO8sokvyrwwUHS/HVUklcnuZ1XDQIAwGxtkeSOSQ5KclyBDweSFqeT2q0CeybZuvcwBACAebRtu59/+ND/pwIfAiTplHa70d5JLtJ7SAIAwJhdOMnD2gn2GQVO9iXpH3Vmkk8meaQvAwAAYGm2aZfWDpfYeoifpLE+RPDz7cqA7XsPVQAAqGTzde7pP6nAybskTfLKgEPbF5vn7z1sAQCgh42S7NY+9J9Q4CRdkmbxzIBD2vNMvE0AAIC5d4Mkr0jyhwIn45LUq2OTvCrJLr2HMgAATNJF272w3yxw0i1J1fphkn2TXLr3sAYAgJXYrN3Xf7An+EvSsh4euFeSrXoPcQAAOC9XTbJ/kt8VOJmWpLH2x/aMlOFZKRv0HuwAAPBXF2iX+H+3wEmzJM1bhyd5bJIL9h72AAAsrp2THJjkxAInyJI0753abqsargoAAICp27y9wuoLBU6GJWlR+1678up8vQ8KAADMnyu2e/u9vk+S6nRCuxLrmr0PEgAAjNumSe6d5LMFTnIlSetvuDJrjza7AQBgSbZpl5b+ssAJrSRpeR2dZN8k2/U+mAAAUNflkxzgoX6SNDcPDRxeJbhT74MLAAB13DjJIUnWFDhhlSRNvs8nuWOSDXofcAAAmL3NkuyZ5NsFTkwlSbPpiHaL15a9D0IAAEzfcE/ofkl+V+BEVJLUp2OSPD3J9r0PSgAATN4O7aFQfyxw4ilJqvOcgOE1gpfofZACAGD1LtMe7HdKgRNNSVLNTm8PDLxS74MWAADLt1M7mTujwImlJGkcndUeCnvd3gcxAADO27WSHOyJ/pKkCbw54Ba9D2oAAJzTzZJ8ssAJoyRpvvofXwQAANRwg3a5Zu8TREnS/F8RcPPeBz0AgEV0tXapf+8TQknS4n0RcNPeB0EAgEVwVff4S5IKdGiSnXsfFAEA5tGV2lP9zyxw0idJ0tr2ZfRwG9o1ex8kAQDmwaWSHOh1fpKk4q8PHK5Ou0LvgyYAwBhtn+RlSU4vcGInSdJSGr6sfmWSHXofRAEAxmDTJHsn+WOBEzlJklbSiUn2T3L+3gdVAICKNkiye5KfFjhxkyRpEv0myV5JNup9kAUAqGJ4r/JhBU7UJEmaRocnuUPvgy0AQE9XbA9N6n1iJknSrF4deI3eB18AgFnaLskBnuwvSVrgNwYMb7kBAJhbmyT5f0lOKHACJklS7wcFPrE9/BYAYK7smuS7BU64JEmq1I+S3K73QRoAYBIunuSgAidYkiRV7pAkl+l90AYAWOnl/nsn+VOBkypJksbQyUn2TbJ574M4AMBS7ZbkewVOpCRJGmO/TLJn74M5AMD6XNZr/SRJmlifSHLl3gd3AIB1bZZkvySnFDhZkiRpnjo1ydPcFgAAVLBLksMLnCBJkjTP/TjJzXsf9AGAxbR1kgOSnFXgpEiSpEVoTXuzzgV7nwQAAIvj9kl+UeBESJKkRezIJHfrfTIAAMy3HdovD71PfCRJUnJIkh17nxwAAPNn9yTHFDjZkSRJ/9dxSfZKskHvEwUAYPwuk+TjBU5wJEnSP+6zSa7Y+6QBABinDZM8NslJBU5qJEnSeXdykse1YzgAwJJcMsmnCpzISJKk5feFJJfvfTIBAIzjXv9jC5y8SJKklXd8ezYAAMA5bJ/kPQVOWCRJ0uT6cJKL9j7JAADquG2S3xQ4SZEkSZPvd0nu3PtkAwDoa+skBxY4MZEkSdPv4CTb9j75AABmb5ckPypwMiJJkmbXz5Ps2vskBACYjc2SPD/JWQVOQiRJ0uw7q50LDOcEAMCculSSLxU48ZAkSf07zOsCAWA+3TXJcQVONiRJUp1OSHLv3icpAMBkbJ7kgAInGJIkqW4HJdmy90kLALByV0zyzQInFZIkqX7fS3K13icvAMDy7ZnkTwVOJiRJ0ng6OcnevU9iAICl2SLJgQVOICRJ0rhvCThf75MaAOAfu0qS7xQ4aZAkSePvB0mu2fvkBgA4pwe3y/Z6nyxIkqT56ZQkD+l9kgMA/MVmLvmXJEkzuCVguM0QAOjkYkm+WOCkQJIkzX9fS3LJ3ic/ALCIbpTkyAInA5IkaXH6XZJde58EAcAi2SvJaQVOAiRJ0uJ1RpJ9ep8MAcAi3O//6gIHfkmSpDd5LgAATMfFk3ypwMFekiTprx2W5FK9T5IAYJ7cOMlRBQ7ykiRJZ++YJDfvfbIEAPPgkUlOL3BwlyRJ+kcN5yqP6H3SBABjtVGSlxQ4oEuSJC21VyXZuPdJFACMyfmSHFLgIC5JkrTcPpZkm94nUwAwBhdrD9TpffCWJElaad9OcsneJ1UAUNnVk/yywEFbkiRptR2ZZOfeJ1cAUNFtkhxf4GAtSZI0qU5McqfeJ1kAUMleSc4ocJCWJEmadGcm2af3yRYAVHjS/wEFDsySJEnT7kBvCABgUW2V5AMFDsaSJEmz6qNJtu59EgYAs37S/9cLHIQlSZJm3XAOdNHeJ2MAMAuXSfKjAgdfSZKkXv0syT/1PikDgGm6apJfFzjoSpIk9e7oJNfsfXIGANNw/SS/L3CwlSRJqtJxSW7c+yQNACbp9klOKnCQlSRJqtapSe7S+2QNACbh3klOL3BwlSRJqtoZSR7Q+6QNAFbjUUnOKnBQVY3OTLKmwL9Dkqq0ps3G3v8O1eisdu4EAKOzX4EDqVbWcDL62yTfS/K5JO9N8pok+yf59yR7Jdkjyd2S7JbkBkmukeSySbZPsm1rmyVsJxus858funSSKyfZOckt2u0juyd5SJL/l+R5SV6X5ANJvpDkB+3+yd7LTNL8d2ybOcPseX+bRc9N8oQkD26zaphZN28z7Mptpq0744aZd14usM5/fvs2W4cZe8M2c+/WZvAwi/dJ8pwkr03yvjazv9dmuC8Wxtu+EzgPA4CZ2DDJSwscPHXunZzkh0k+leSNSZ6R5GFJ7tBOMIeTzTHaMsmV2snx/ZP8V5JXJ/l4kp+78kDSebSmzYqPJXlVmyH3azPlSm3GjNH2bbbfoc36YeYf1I4BRyQ5pcCy17n3knZOBQBlbZLkrQUOmove8MDFbyV5d/vVfvhl6mZJdszi2qKdBA+/0D05yZuTfLvdc9l7fUmaXWe0+fimNgt2b7NhmBGLasd2jHhIu5rg3W0ZeXhv/97Szq0AoJxN2+WHvQ+Wi9RwcvbVdhnq45LccsE/5K/E5kmu0y6lfUWSL7enMfdet5JW37AvfynJy9uH22Ff36z30BmZ4ZhyqySPT/L6dszxxcBse287xwKAMjZt90P2PkjOc79py/gp7VVBl3dp4FS/FLhpkv9slwOfUGD9Szrvhn31o+2X/Zu0fZnJ27Adg+7abpUYjk1HFlj/89zwA4svAQAoYdP2QLbeB8d5e9DU8MHzmUnunOTivVfygts4yXXbFwLDFQLebCHVaHjI3RfbB/7h1/2Neg+LBbdjO2Y9sz1/xQNaJ9vwRYsvAQDoariU8pACB8Wx95Mkb0jywCRX6L1SWdJDte6b5O1J/lhg+5EWqePas2buk2S73sOA9RreeHDFJA9qD539aYHtZ+wNP7i4jQWALoYD0AcLHAzH+KTp77Z7Uu/l1/3RGy4xvnu7R9OzA6TpdGp7MN1wybkPP+O/SuDe7ZkrhxfYtsbY8MOL/QCAmRoOPB8qcBAcS79rv1gNr5S6SO+Vx9Rs29648IUC25w0D32+/Xp8gd47N1Nzsfbq1rclOabANjeWhh9gfAkAwMx+8fxwgYNf9ddMfXad+1I9rG/xXLs9Mds7tqXldXKS1ya5Vu+dmJnbcJ3nrXzOa1rPs+GHGF8CADD1D/8fKXDQq9hJ7TLwPZNcsPeKotTzAp6Y5LcFtlGpckcl2SfJhXrvtJRxoXZ1wPvaF0O9t9GKDT/IeNsFAFPhgX/n/rT+g9uH/vP3XkGUtlWSvX0RIJ2j3yfZ1wzlPGyR5I5JDjRHz9HH2vIBgInZvL1bufdBrkInJnlzktsm2aT3imF0tmkfdk4osC1LPTu+vUPeB3+Wazj23j7JW9rVd7235QoN52iuBABgYgfaRf/l/6z2MKq9nKwyIRdNclCBbVvq0XBMuUTvnZC5MPzyvXvbpk4vsG33vhLAMwEAWJWNkryjwEGtV99pl23v0HtFMLeGS1p/UWBbl2bRz9svtzANw1t2HtNetbt2QXtbO3cDgGXboD2Jee2CNTy1/Y1JbtR7BbAwztfeGNB725em2WvbszBgFm7crrJaxDexvLqdwwHAsjyvwEFslv2gPYF6u94LnoU1PEzS/ayat05tV1JBr+euDLfvfbvAvjDLDui94AEYl6cXOHjNojXtFTo3773Aobl2kp8W2DekSTRsy9fqvVNB+0V8t/awvDUF9o1Z9NTeCx2AcXhsgYPWtDstyeuS7NR7YcO5uHCSrxXYT6TV9NW2LUM1V0vyhnYusHbOe3TvhQ1AbfdsT7xfO6cdl+TZ7QnsUNnwtomPF9hnpJX0kfZsC6js4kn2T/LHAvvMtBrO6e7ee0EDUNOu7V7NtXP6vun9klyg90KGZdg0ybsL7D/ScnpHe30sjMW27dbHEwrsP9NoeBDiTXsvZABq2an9Or52zjqxPQjHZaiM+UuAjxbYl6SldKj3kDNiF0qyb/vRYO2cNVzlcPXeCxiAGi6Z5NcFDk6T7OQkz02yfe+FCxMwXEr9vwX2K2l9fdFr/pgTw48GL5jDVwj+ot32AMCCX/Z2eIGD0qRa0y4/vVTvBQsTNrye0tsBVLUfteMJzJPLJHlngf1rkn2rvRoRgAW0cbtcc+2cdJh73Jhz10hyUoF9TTr7FVde9cc8u36SLxXY1ybVx9s5IAAL5pUFDkKT6KgkD0yyYe8FCjNw/wL7nLRu9+69U8AMDOcYD05ydIF9bhK9tPcCBWC2HlPg4DOJy/1f67JTFtCrCux/0pAPESyaCyZ5fTsHWTvyHt57YQIwG7dJcmaBA89qGu6FvmXvBQmdbNXuue69H2qx+0l7QCUson9OckSB/XA1DeeCt+u9IAGYrqu0V8GsHWlnJTnQSSfkRm1/6L1PajEbtj3PXGHRbZFk/5H/qDK88vCqvRckANN7v+3PChxsVtrPk+zSeyFCIS8psF9qMXtR740fCrlJkl8W2C9X2o/arQ0AzJGNRv7E/3e71x/OYbgS5tcF9k8tVsO7xLfsvfFDMcMH6PcW2D9X2kc9TBlgvjy3wMFlJZ2SZO/eCw8K26PAfqrF6h69N3oobM8Rv6716b0XHgCTcY+RPq12uCTt6r0XHhS3wZy9n1q1+2zb5oB/7BrtIZlrR9ZwrvgvvRceAKtzpfaAl7Uj6/NJLtx74cFI7OyBgJpBwzZ2nd4bO4zouUufLrDfLrcTkly598IDYGUuMNJXhb06yaa9Fx6MzNsL7Lua7w7qvZHDyAznMq8tsO8ut+962xLA+GzQHpy3dkQNr9F5XO8FByM1vMbJVQCa5ny+Qu+NHEbqCSOcz+/ovdAAWJ69Cxw8ltMZ7WFmwMq5CkDTyq//sPrnMZ1eYF9eTg/vvdAAWJrhHs1TCxw4ltppSe7Se6HBHLjKCH9l0jh+/b9i740b5sDt29uN1o6k4VzyWr0XGgDnfd//TwscNJbayUlu03uhwRx5Z4H9WvPVW3tv1DBHbtPOfdaOpB94HgBA7fv+31PgYLHUhvfk7tp7ocGcuVGBfVvz1fV6b9QwZ3Zt50BrR9Kbei8wAM7dowocJJbacJmyy/5hOr5WYB/XfPTF3hszzKm7juyWrfv3XmAA/L2dRnZf2WN7LzCYY/ctsI9rPvrX3hszzLHHFdjHl9qJSa7ce4EB8BebJflmgYPDUjuw9wKDBXj39FEF9nWNu98k2aT3xgxz7iUF9vWl9vV2fAGgs+cXOCgstQ8l2bj3AoMF8OwC+7vG3X69N2JYABsleV+B/X2pPaP3AgNYdLcY0T1kRyQ5f+8FBgviigX2eY23NUku13sjhgWxdZIfF9jvl/pa0F16LzCARX7l3y8KHAyW+i7Za/deYLBgvlhg39c4+2zvjRcWzM5JTiuw7y+l4XXTftAB6ODtBQ4CS23v3gsLFtBeBfZ9jbMH9d54YQGN6aGAr+69sAAWzd0KDP+l9oEkG/ReYLCAtklycoEZoHF1UrskGZit4VzpgwVmwFK7U+8FBrAotkvy2wKDfyn9OsmFei8wWGDvKTAHNK7e1XujhQU/x/tNgTmwlI5Msm3vBQawCN5RYOgvtX/pvbBgwe1RYA5oXP1r740WFtxdC8yBpfaG3gsLYN79S4Fhv9T8igQ1bgMYy4OlVOOBrS7/h/7G9GpAtwIATMlwKf3RBQb9Ujo+ycV7LzDgzz5cYCZoPM9sAfq7WJI/FpgJS73dc3gzFQAT9pYCQ36pPbz3wgL+5sEFZoLG0f17b6zA3+xdYCYstVf0XlgA8+ZWBYb7UvtSkg17LzDgby6aZE2B2aDanZXkwr03VuBvNkry1QKzYSkNx5ib9V5gAPNiiyQ/HtEB4Aa9FxhwDt8sMB9Uu8N6b6TAOdykwGxYakck2bz3AgOYB88sMNSXmgf/QU3PLTAfVLtn9d5IgXP1/gLzYak9tffCAhi7q47oCd5nJrly7wUGnKvdCswI1c7lu1DTlZKcUWBGLPVNIlfsvcAAxmqDJJ8uMMyXmgfAQF2bJTmxwJxQzU5s2whQ02sKzIml9vHeCwtgrB48spPH4UFjQF0fLTArVLMP9d44gfUaXq18coFZsdTu2XuBAYzNtkl+V2CAL7Xn9V5gwHn6zwKzQjV7Yu+NEzhPLywwK5bab5Js3XuBAYzJSwoM7+Xc73Wx3gsMOE+7FpgXqtnwpHGgth1H9FyooRf3XmAAY3rw31ge9jJ0YO8FBiz5laJjOnnU7L7E9eouGIfXF5gZS204l92p9wIDGIMxPfjvrCT/1HuBAUv2vwXmhmr1+d4bJbCsNwKcVWBuLLVP9F5gANXdq8CwXk4H915gwLK8oMDcUK32771RAsvyvgJzYzndofcCA6hqqyS/KjCol9N1ei80YFnuWWBuqFZ3671RAsuyS4G5sZx+mGTT3gsNoKJ9Cwzp5fSl3gsMWLYrFJgdqtVlem+UwLIdVmB2LKfH915gANXskOSEAgN6Od2/90IDlm2DJMcXmB+q0XFtmwDG5aEF5sdyGs5xL9J7oQFU8qoRnjRu2XuhASvy2QIzRDX6n94bI7Ai5x/hD0cv673QAKq48she+zf0kt4LDVixAwrMENXohb03RmDFDiwwQ5bTGe0tBgAL78MFhvJyu1rvhQas2P0LzBDVaM/eGyOwYtcuMEOWm7dHAQtvtwLDeLl5+B+M23ULzBHVaOfeGyOwKl8tMEeW05ok1+u90AB62WCET3EdekTvBQesytbtJKz3LFHfhm3gfL03RmBV9i4wS5bbp3svNIBe7l5gCC+3M9sbC4Bx+02BeaK+/bL3Rgis2kXaudnakXW73gsOYNY2SnJ4gQG83D7ee8EBE/HJAvNEfTu090YITMSnCsyT5fatJBv2XnAAs7RngeG7kh7Qe8EBE/HyAvNEffvv3hshMBF7FZgnK+mevRccwKxskuTHBQbvcjstyba9Fx4wEY8uMFPUN89zgflwoSSnF5gpy+177YpYgLn30AJDdyW9v/eCAybmDgVmivp2294bITAxHyowU1bSfXovOIBp2zzJrwoM3JX0wN4LD5iYqxWYKerbVXpvhEAW/TaAH7oKAJh3jygwbFf6uqiL9V54wERfBdh7rqhvXgEI8+NiI3696/BcLIC5vff/5wUG7Ur6Su+FB0zccQVmi/r0+94bHzBxXy8wW1bS8FysjXsvPIBpeHCBIbvS9u298ICJ+2aB2aI+DR8UgPny9AKzZaXdv/fCA5i04f6mIwoM2JV2nd4LEJi4DxSYLerTe3tvfMDE3aDAbFnNVQCeBQDMlfsWGK4r7egkG/ZegMDEvazAfFGfXtp74wMmbjhX+12B+bLSdu+9AAEmOZC/X2CwrrQ39V6AwFTsW2C+qE//1XvjA6biLQXmy0o7rPfCA5iU3QsM1dX0oN4LEJiKhxeYL+rTv/Xe+ICpeEiB+bKabt17AQJMwpcLDNTVdLneCxCYirF/OamVd9feGx8wFVcoMF9W0//0XoAAq7VrgWG6mn7VewECU/PPBWaM+nTj3hsfMDW/KTBjVtONei9AgNX4UIFBuprc/w/z68oFZoz6dMXeGx8wNW8tMGNW0yG9FyDASu2UZE2BQbqa3P8P82u7AjNGfbpg740PmJqHFpgxq2k4d/YlJTBKry8wRFfb5XsvRGBqNikwY9SnjXtvfMDUXKnAjFltr+i9EAGW6+JJTiswQFfTMb0XIjB1pxSYNZptJ/Xe6ICp2iDJH+ZgTl2o94IEWI5nFxieq+3DvRciMHW/LTBrNNuO7r3RAVP38QKzZrU9qfdCBFiqLZL8vsDgXG379l6QwNT9uMCs0Wz7Ue+NDpi6ZxaYNatteJvBpr0XJMBSPLjA0JxEt++9IIGp+0aBWaPZdljvjQ6YujsXmDWTaI/eCxJgkU6od+i9IIGp+0yBWaPZNqxzYP6fRbV2DvKFJVDeTQsMy0n0i94LEpiJjxSYN5ptwzoH5t9vCsybSbRL7wUJsD7vLDAoJ9F7ei9IYCY+WGDeaLYd0nujA2biAwXmzSR6U+8FCfCPXDLJGQUG5STar/fCBGZiXk4QtfTe13ujA2biWQXmzSQaXqt94d4LE+DcPL3AkJxU9+i9MIGZeG+BeaPZ5govWAz3KTBvJtU+vRcmwNltPEf3Wg1dpfcCBWbi3QXmjWbbcKsaMP+uWWDeTPLZVBv1XqAA67pLgeE4qU733lVYGAcXmDmabW/vvdEBM7HZHN2aOnSH3gsUYF6fpP3t3gsTmJm3F5g5mm1v6b3RATPzgwIzZ1J9qPfCBPirSyc5q8BgnFRv671AgZl5S4GZo9l2UO+NDpiZdxWYOZNqONe+VO8FCjB4RoGhOMn27b1AgZl5U4GZo9n2xt4bHTAzzywwcybZU3svUIB5e/jf0H17L1RgZt5RYOZotrkFABbHAwvMnEn2syQb9l6owGL7lwLDcNLdqPdCBWbGawAXr+GSYGAx/HOBmTPpbtl7oQKLbR5Pni/Se6ECM/OhAjNHs+39vTc6YGZ2LDBzJp1nVQHdXCjJaQUG4SQ7KckGvfa/yVsAACAASURBVBcsMDOHFpg7mm3DW2uAxTCc051cYO5MsuHce7veCxZYTI8uMAQn3Xd6L1Rgpj5TYO7M6unRx66nUwv8G2fVp3pvdMBMHV5g7ky6R/VeqMBi+nqBATjp3td7oQIz9aUCc2fd1rQP5D9JcliSTyZ5d5LXJnlBkqe0E7/7Jdk9yW2S7Jpk5yRXSXLZdnXW+Va5XLZJsm2S7dv/5k7t/2O3JLdv/9/Dw7UeluQ/kuyf5MD2UMWPJflKkiOS/C7J6QWW67p9fkLbDjAOhxSYO5NuOAcHmKmrFxh+0+glvRcsMLdfZH61fZh/WZL9kjwyyT2T3Kx9wN4hyUaZT+dPcoX2kNU7J/m3JP/VZu472xcGs1wPwOJ4WYHzy2k0HDcAZuYFBQbfNBp+yQIWx3dnOF9u1fuPLexWM1wP3+r9xwIz9eQC55fTaLjyCmAmNk5ydIHBN4327L1wgZn6xQzny2N6/7GFPWaG6+Gnvf9YYKbuX+D8chr9MsmGvRcusBhuU2DoTaub9164wEydMMP58sref2xhr5rhevhD7z8WmKlbFzi/nFbDM2AApu6NBQbetLpS74ULzMyG7aF7s5ovn+39Bxf2uRmuhzO97hUWyk4Fzi+n1Wt6L1xg/m2e5I8FBt60Gh5UBSyGC8x4vvy+9x9c2O9nvC5W+5YEYDwuWOD8clodn2SL3gsYmG+7Fxh20+pPvRcuMFOX6jBnhlfr0f/k/OK9/2hgpk4pcJ45re7Re+EC8+3dBQbdtPJgKFgsPV5nes3ef3RB1+qwHq7S+48GZuqXBc4zp9V7ey9cYH5tPeffoHo3NCyWm3aYM3fq/UcXdJcO6+GGvf9oYKa+WeA8c1qd2s7RASbuAQWG3DT7eO8FDMzUHTrMmUf3/qML2rvDerht7z8amKlPFjjPnGb36b2Agfn00QIDbpq9tfcCBmbqgR3mzPN7/9EFvajDerhv7z8amKmDC5xnTrP39V7AwPwZHlx1WoEBN81e1nshAzP1xA5z5p29/+iC3tVhPfy/3n80MFOvLHCeOc2GW3TdBgBM1P0LDLdpt1/vhQzM1H93mDPD++75e1/osB5e0PuPBmbqmQXOM6fdHr0XMjBfDikw2KbdY3svZGCm3tFhzvyw9x9d0I86rIe39P6jgZl6fIHzzGn3/t4LGZgfW7cnjK6d8x7ce0EDM/WZDnPmj73/6IKO77AePtX7jwZmaq8C55nTztsAgInZo8BQm0X36r2ggZk6otOs2bz3H17IFp3Wwfd6/+HATDmXBViG9xYYaLPI+7lhsZzQadZcsvcfXsilO62DY3v/4cBM3aXAeeYsenvvBQ2M35ZJTi4w0GbRbr0XNjDT2dZr1ly39x9fyPU6rYM1STbr/ccDM3OrAueZs2i4pcpsA1blzgWG2ay6Qe+FDczMlTrOmjv0/uMLuWPH9XD53n88MDM3KnCeOatu03thA+P22gKDbFZdrffCBmbmdh1nzYN6//GFPLjjerhl7z8emJlrFjjPnFWv6L2wgfHaMMnRBQbZrPJrECyOR3ScNU/s/ccX8qSO6+Ghvf94YGauUOA8c1Yd2c7hAZZtlwJDbJZ5MBcsjud3nDUv7v3HF3JAx/Xw7N5/PDAzlylwnjnL3NYKrMizCwywWXbx3gscmJn3dJw1b+v9xxfyto7r4R29/3hgZi5R4DxzlvmCE1iRwwsMsFl2kd4LHJiZb3ScNR/u/ccX8uGO6+Ervf94YGYuWuA8c5Z9u/cCB8bn8gWG16zbrvdCB2bm+I6z5kO9//hCPthxPRzT+48HZmb7AueZs2646gFgyR5dYHDNum17L3RgJrbrPGuGD738xQc6r4utey8AYCYuWOA8c9Z50CmwLB8pMLhm3fl7L3RgJm7ceda8v/cCKOR9ndfFdXsvAGAmti5wnjnrhvkKsCRbJDm5wOCadVv1XvDATOzlpKyMd3deFw/ovQCAmdiqwHnmrDsxyWa9FzwwDrctMLR65AoAWAw9Xz23tr2BgL94Z+d18bzeCwCYiUW8AmDolr0XPDAOvU+Oe3WB3gsemIlPdJ41w6/e/MU7Oq8Lb2SAxbCIzwAYelHvBQ+Mww8LDKweeQsALIYjO8+at/deAIW8tfO6+EXvBQDMxCK+BWBtO6cHWK/LFRhWvdqh98IHFuJXoNf3XgiFvLnzuljjTQCwEC5aYPb36jK9Fz5Q2yMKDKpeXbz3wgfm/g0AQy/vvRAKeXWB9XGD3gsBmLodC8yaXj2k98IHantPgUHVq0v2XvjA1D2swKx5Qe+FUMiLC6wPJ8cw/y5dYNb06uDeCx+oa8MkfygwqHo13P4AzLfXFpg1z+i9EAp5ZoH1cWDvhQBM3T8VmDW9+n07xwc4h2sVGFI9u1rvFQBM3bcKzJon9l4IhTypwPo4rPdCAKbuGgVmTc+u03sFADU9rsCA6pn7QGG+bZXkjAKzZq/eC6KQCs+dOT3J5r0XBDBVuxSYNT3zxTNwrg4pMKB6dvPeKwCYqpsUmDNDd+m9IAq5R4H1MeQLYJhvtywwZ3r2yd4rAKhnoyTHFRhQPbtj75UATNVjC8yZoZv2XhCF7FpgfQw9sveCAKbqzgXmTM9Oa1fBAfzN9QoMp979a++VAEzVWwrMmaGrLuHfOlySvn2Syya5dpJ/TrJbktsk2X2d9lqnxyfZp7Vfkv1X2X7r/O8NPXSd/6/7rvNvuFv7tw3tnOQKSS6yxJPNqxVYH0NvnMD2BdR17wJzpnfDVRAAf7NPgcHUuwf1XgnAVB1RYM4MPTrJY9rbAF6T5H1JvpDkh+1NLKcX+DdOqrOSHNuW/ReTvL+9ieGZbRk8usC/ceh7vTdOYKoeUmDO9G6YuwB/89ECg6l3w8koMJ+GX6TXFJgzqtmadsUFMJ8eX2DO9O7zvVcCUMcmSU4sMJh697TeKwKYmnsWmDGq3V17b6TA1DyzwIzpnecAAH9zowJDqUIv6b0igKl5eYEZo9od0HsjBabmFQVmTIVu0XtFADU8pcBAqtDwgDBgPh1eYMaodt/qvZECU/OOAjOmQq52Bf7sUwUGUoU+3HtFAFMx3Nvt/n+dV8M2sl3vjRWYikMLzJgKfbb3igD62yzJyQUGUoW+3HtlAFNx9wLzRePoLr03VmAqvlZgvlR5DsCWvVcG0NfNCgyjKg2vqQLmz0sKzBeNI88BgPn00wLzpUo3770ygL72KzCIqnR875UBTMUPC8wXjaPv995Ygak4qcB8qdLw7C9ggX2iwCCq1Pl6rxBgoi5XYK5oXF2+90YLTNQ2BeZKpT7ae4UA/WzYfvXuPYgq5cQP5stjC8wVjatH9d5ogYm6UoG5Uqnh3H+j3isF6ONqBYZQtW7Se6UAE+UqJy03v47BfNm1wFyp1tV7rxSgj4cUGEDVukfvlQJMzNbtice954rG1aluB4O5cq8Cc6VaD+u9UoA+XlNgAFVr794rBZiYuxWYKRpnd+q98QIT87gCM6Vab+69UoA+vlNgAFXrub1XCjAxryswUzTOXtV74wUm5vkFZkq1ftZ7pQB9Lo09q8AAqtY7eq8YYCI2SfL7AjNF4+yYJBv33oiBiXh3gZlSsR17rxhgtm5ZYPBU7Cu9VwwwEXcoME807m7deyMGJuKwAvOkYnftvWKA2XpKgcFTsd/1XjHARLypwDzRuBtuIQHG79gC86Riz+q9YoDZ+mCBwVM1T3+Gcdu8vee49yzRuDu+bUvAuG957T1Lqvbx3isHmJ0N2v2NvQdP1a7aewUBq3L3AnNE89Gde2/MwKpco8Acqdqx7TMBsAAuX2DoVG64dxgYr4MLzBHNR2/rvTEDq3LnAnOkcpfrvYKA2dijwMCp3BN6ryBgxbZNcnKBOaL56KQk2/TeqIEV+48Cc6Ry9+y9goDZeGmBgVO5V/deQcCKPbrADNF89fDeGzWwYm8oMEMq97zeKwiYja8VGDiV+1zvFQSs2HcKzBDNV9/qvVEDK/blAjOkcp/uvYKA6dsiyekFBk7lft97JQErcpMC80Pz2Q16b9zAihxXYH5U7oQkG/ZeScB07VJg2Iyh7XqvKGDZ3lRgdmg+e33vjRtYtosUmB1j6Mq9VxQwXY8oMGjG0PBLIjAeF0pySoHZofl9GOAFem/kwLLsWmB2jKH79l5RwHS9usCgGUOP7L2igGX5fwXmhua7x/TeyIFleUyBuTGGDui9ooDp+mqBQTOGXtN7RQFLtlmS3xSYG5rvfpVk094bO7BkbywwN8bQF3qvKGB6NnaJ7JIb3pQAjMNDCswMLUb3772xA0v2rQIzYyy3OA2fEYA5tFOBITOWTk2ySe8VBpyn4enFPywwM7QYfd8Ts2E0V4Z569XSu3rvFQZMx30LDJgxZRhCfbsXmBVarO7ce6MHztPOBWbFmHpg7xUGTMfzCgyYMeVST6jPc000677ce6MHztODC8yKMfXy3isMmI5DCwyYMfXK3isMWK87FZgTWsxu33vjB9brNQXmxJj6Su8VBkzHMQUGzJgaHh4D1LRRksMLzAkt7rMAPDQL6nJ8WP6DAD3fBObMJQoMl7F1VpJteq844Fw9rMCM0GI3XGIM1HOBdg7Xe0aMrcv3XnHAZN2xwGAZY7v1XnHAOZwvyVEF5oMWuyOTbNV7ZwDO4dYF5sMY84BTmDNPKTBYxth/9V5xwDk8rcBskNa2YytQy74FZsMY+8/eKw6YrHcWGCxjbHhwIlDHZdu9ir1ngzT0pySX6r1TAH/nkwVmwxh7e+8VB0zWjwsMljF2SpIteq884M82SPLxAnNBWrdPtm0T6G/zdu7Wey6Mse/2XnnA5GydZE2BwTLWdu29AoE/815nVe1+vXcO4M92KzAPxtoZSTbrvQKBybhJgaEy5p7eewUCuUiSYwvMA+nc+kOSHXrvJECeXWAejLmr9V6BwGQ8osBAGXNf7L0CgbynwCyQ1tfwrB2gr68UmAVj7t69VyAwGS8rMFDGfknUtr1XIiywhxWYA9JS2qv3zgILbLskZxaYA2PuWb1XIjAZny4wUMaeb0Shj+slObXADJCW0rCtXrf3TgML6n4FZsDYe3/vlQhMxlEFBsrYe1vvlQgL6IJJflZg/5eW0y/aL5HAbL2rwP4/9n7SeyUCq3eBAsNkHvpjkk17r0xYIBsm+UiBfV9aSYcm2aj3TgQLZHh6/QkF9v2xN7w17Py9VyawOjcsMEzmpeHVMsD0De9Uf0WBfb5qp7Q3Ivw8yY+SfC3JF9qHzvcmOTjJW5MceLaG58Hs/w86+3/2oPa/c3B7uN3wv/259v91RPv/Hv4N3rf9j3tp7x0JFshtCuzz89L1e69MYHUeUGCQzEvDyTMwfc8psL9Pu2OSfC/JZ5K8O8lrk7wgyVOSPDLJHknukOTGSXZKsmOSrVP7arPhNXhXTHKDdjL+r+0Bjk9M8twkr2pfJnwiybeSHNkesrp2jhu+XAGm78AC+/u89KDeKxNYnecWGCTz0u+SbNJ7hcKce3KBfX21nZ7kde191I9tH+ZvleTqSS6aZOPeC7nY1R4XTnLVJLu2B67uneQZ7UuRebjC4Em9FzLMueEWzT8U2NfnpRf1XqHA6hxSYJDMU7fvvUJhju1dYB+fRJ/qvSDnyAcLrM9JNGzbwHT8S4F9fJ4abvkCRuxHBQbJPPWW3isU5tQ+BfbvSfX43gtzjjyswPqcVP/ee2HCnHpHgf17nhreHgaM1OZJziwwSOapE5Ns1XvFwpx5eoF9e5IN98EzGZcssD4n2X69FyjMmeHZKCcX2LfnreG5LsAIXb3AAJnHHtx7xcIc3f/9ggL79CT7ce+FOoe+XWC9TvrtAMO2D6zePF0lVKnr9F6xwMrco8AAmccO671iYQ5s3B7ytnbO8vCkyXtWgfU66YYnlm/Ue8HCHPhWgf15HhseyAqM0FMLDJB5bXjNFbAyW87xA0pv3nvhzqEbFViv0+j9bV8AVubGBfbjeW34DAGM0NsKDJB57Y29Vy6M1IWSfKnAPjyN/uhVoVMx/FJ+TIH1O40+n+SCvRcwjNSbC+zD89qwbIER+maBATKvDe+mvljvFQwjc5kkPyiw/04rXwxOz6sKrN9p9b32sENg6S6e5NQC+++89r+9VzCwfBsmOanAAJnnhoeXAUtzwyRHF9hvp9ltey/kOXaLAut3mg1XONyk90KGETmgwH47zx3bewUDy3fZAsNj3hu+YLlw7xUNI3DPBXhN03CytGnvBT3ntwHM+xdIw6+Ze/Re0DACO/iRayYNt+wBI3K7AoNjERqeTg2cu+FVZ89IsqbAvjrtXt17YS+AlxZYz9Nu2Ff285pAWK/nFthXF6Hhyj1gRB5VYHAsQn/yLAA4V9u0p5yvXZCGS9SZrpsUWM+z6l1Jzt97gUNBO/r1f2bt2XtlA8vz4gKDY1Hy4C/4e1dMcniBfXNWHeWd7jMx/Cr+iwLre1b9MMlVey90KOatBfbNRenpvVc2sDwfKDA4FqXhks3r917hUMTdkpxQYL+cZf/de6EvkOcXWN+zbNiX7tp7oUMRuyzILWVVenvvFQ4sz3cLDI5F6itJNu690qGjzdsH4UU8ObtG74W/QK5SYH3PumGfel6STXovfOhoOMf6WoH9cZE6rPdKB5Z3maT7o2bfU3uveOj4oeybBfbBHnlX8ux9ocB679FXk1y+98KHTp5WYB9ctIYrkICRuFiBobGInZHkBr1XPszYngv+heODe6+ABXT/Auu9V8cnuXfvFQAdLv0/s8D+t4gNr1wERuDGBQbGovajJBfsvQHADFw4yQcL7HO9fx05X+8VsYC2THJcgfXfs9d4SwALYngX/U8K7HOL2vD2FWAkv8j1HhiL3Gfb/dAwr3ZL8psC+1rvXtl7RSywlxVY/737eZKb9V4RMEWbJvlUgX1tkXtg740AWJp9CwyMRW94cuqGvTcEmLAtkrxwQR/0d25dp/cKWWDXLLD+K3RWe0DgZr1XCEzYcA71jgL72KL37N4bArA0BxUYGPrLu2qHb69hXn71/1GB/apKX+q9QsjnCmwHVTo8yU17rxCYkE3bOVTv/UrJu3pvDMDSLOoTkis2XLq2de8NAlZheKbFgX71P0d36b1iyJ0KbAeVWtN+ANi+94qBVRieq/KRAvuT/pJXAcJIHFVgYOj/+nZ7MwOMze5JfldgH6rWD93iU+aVt98tsD1U69gke7XlA2OyQ/vA2Xsf0v/1+94bBbC0pyP7pa5ev0py/d4bByzR5ZJ8vMB+U7XhwxU1PLDA9lD5gbRX6b2CYImuneRnBfYbnTNvHIHidiowKHTuneKd4RQ3vL3iKW1b7b2/VO1ob/koZXj4nTdS/ONObQ8Gts1S2UPattp7f9G5d9XeGwiwfu6JrN+rnYxRzHA5+x7ttWK994/qPbn3yuIc/r3AdlG94QGed3dbAMUM50KvLbB/aP3drveGAqzfYwsMCi3tuQDDa6ygt1u453LJHZdk294rjHPYpt2n2nv7GENfTvLPvVcYtEv+v1Ngn9B597DeGwuwfi8pMCi0tM5Isn+STXpvNCykKyc5uMB+MKb26b3S+IceX2D7GFOH+hKaTjZus/S0AvuBltaze280wPp9qMCg0PLfJ37F3hsOC+PiSV6T5MwC2/7YHuS5Re+Vx3ovJf5Fge1kTA0z4HVJduy98lioL57/t8C2r+X11t4bDrB+hxcYFFp+w8Nvntne4gDT+uD/oiQnFdjex9iDeq9AztP9CmwnY+zkJM9Jsn3vFcjc2qpd8ehX/3H2hd4bELB+JxQYFFp5v06yZ++NiLly6SQHeLL/qvp+u2yV+g+z/EaB7WXMX0QflOSfeq9I5sodPWB2Lq6AAwo/CKn3kNBk+kiSq/feoBi14f3fb2rPmui9PY+94e0qjMMdCmwvY+/09kWAV3+xGtdI8rEC27NW31lJNu29QQHnbqcCQ0KTHbhvTnLZ3hsWo7Jzkne37af3NjwPfbz3CmXZPlpgu5mH1iR5f5Ib9l6hjMrlkrzFMWjuci4KRd22wIDQdH6NeVmSi/bewChr+Gb+Xkk+V2B7nadOaiezjMtlkpxYYPuZp/4nyV3cCsN6XCzJy9s5S+/tVZNv194bGHDu9iowIDS9TmuXZXpjAOuecO3T7s/rvX3OY//eewWzYk8osP3MY0e1h7kNzxaBv37hdkB7mGTv7VPTa3jIKlDQ0wsMCE2/4bK6Q5Jcr/cGRxcbJNktycHu759q30qySe+VzYptlORrBbajeT4OHZpkd1cFLPQ9/sOPEo5Di9F/9d7ggHP3ugIDQrPtE0nu5gRsIVyuHYB/VGC7W4T3o1+n9wpn1a7lw8lM+lmSJyXZsfcKZ+qGL0XvnuSTBbY7zbbX9t74gHN3aIEBoT79Jsl+7V3vzI/tkjwiyRcLbGOL1PN6r3gm5tkFtqdFuirgM0ke1mYX82P4cudpSY4ssJ2p3w9OQEE/KDAg1Lfh1673tasCNu+9QbIiW7YH+g23eXiY0uz7ktcdzd0vlp8vsF0t4rHow0n2TLJ1742AFdm8/dr//nZVVO9tSn0brj4ECvLUY63bcUlek+RmSTbsvXGyXhdO8sAk77Ufd+33SS7Ze2NgKr9e/q7A9rWondJeTXofVwaUt2E7Zxgu9/5jgW1HdTrVuSTUc8ECw0F1+2WSFye5uecFlLFTkie2X5y9L7l/wzq4Xe+Ngqm5lf2sRGe2W5qe3J7RMDzUlL42bucGB7Rzhd7biOrmddRQzNULDAaNo2OTvKld2nf+3hvuAtmuLfOXJflpge1Af98ze28gTN2+BbYz/X2/TvKqJHdOcoHeG8gCOX97g8Ob2zlB7+1A42jn3hsu8PduX2AwaHyd1h7aNDxd/kauDpio4WT2Tu3Ki+GVcmsKrG+de4e218Yx34bLVz9SYHvTuTdcofGN9kv0XZNs33uDmSMbt2P8U5N81vNltMLu2HtDBv7eQwsMBo2/E9rD5x6XZBcPElzWB4urJLlf+4X/MA9NGk3fTrJN7w2Imf7y+Y0C253Ou+FL08OTvKI9P+CK7kFess3bMfzxST6Y5E8F1qfG3169N2zg7z2jwGDQfF4h8OX2K/a/Jrmsezb//Evx5dubFp6T5FPti5Pe60rL71feXb6QLpbk5wW2Py2/E9pVay9MskeSK/tS4M/H5Mu2t8cc0I7ZpxVYV5q/htuogELeWGAwaDE6PskX2q8y/9YuK5zHX1CHk8rLJLlDkn2SHNR+2T+5wDrQ6ju6/aLIYrp8u/+893ao1Tf8uv3V9mybJ7UvZ68yp6/z3KYdcx+W5JXtWOwLaM2qA3vvAMDf+2SBwaDF7nft6c5vat8S79EuQdyx6InYJu3fdv0k92gf8ocTqo8lOcIvKHPdMe0tDCy24Qugowpsj5pOZyT5YZKPtgcN/meS+yb55/bl7nAMqGY4Vl6ifci/bzuWvrm9LcarLNW7D/TeQYC/d0SBwSCtr9+2+62Hh3C9oV0+P/xa84j2ZcHwcJmbtqfMXq5d0ji0Q5Jt19NF2n/uKu2/e5P2v7Vnkke3Bxy+sF0lM5wIfqf9W3ovD/XpSB/+WccVkvyiwHapPv0+yffag/He3Z7hsm97Ds5D2pPyb9M+kF97nePSjus5Ju2wzn/ucu24dNN2XNqjHfOe1I6Bb2jHxOHY6Lik6n2t98AG/p7LkiVp/f2snZDDui7ZfinuvX1KUuV+03tYA3//urHeQ0GSKvd9D/xjPYZfbb9ZYDuVpKoNbzfyylwo4soFhoIkVW14eKN3inNetm33WvfeXiWpahftPaiBv7h5gYEgSRX7xJy+pYLp2Ko96Kr3ditJFRuehQEUcJ8CA0GSqvXGok/6prbhEteXF9h+Jalaw6uRgQKeUGAgSFKlDkiyQe/hzKjtnWRNgW1Zkqo0vB0DKOD5BQaCJFV597cTFCZleBf7aQW2a0mq0PBqZaCAtxYYCJLUuz8kuUXvgczc2SXJ0QW2b0nq3St7D2TgLz5dYCBIUs+OSHKl3sOYuTW8QvJrBbZzSerZ+3sPY+AvflBgIEhSrz6a5AK9BzFz73xJ3lNge5ekXn219yAG/uK4AgNBkmbd8IC2Z7entsMsbJhk3yRnFdj+JWnW/br3EAaSLQsMA0madccnuVvvAczCunmS3xbYDyRp1g/a9aU7dHa5AsNAkmbZ95JcuffwZeFdIsmXCuwPkjTLLtJ7+MLYbZvkGklun+R+SR6f5DlJXpfknUkOTfKFJF9P8pPWkUmObR1fYBBI0qx6fbvyCSrYLMnLC+wXkjSr/rjO55Aj1/l88vX2meXQ9hlm+Czz3CRPSHL/JHdIcq0kF+o9uGEWtkly/SQPbDvCB5J8x4d3SVpyw7y8d+9hDv/AXdtrKHvvJ5I0hk5McniSDyd5YZKHJLlR+2EURmf4ZerG7Zf8g5P8vMBOJkljbrjM+rK9hzss4ZaAzxTYXyRp7A8aHN648h9Jdk1y/t7DHc5u4/aBf78kX2wPx+i940jSPHRmkme2OQtjMDwc67+cC0jSxDqrvX5weOvPLZJs3nvQs7iX9O+R5L1JTiiwY0jSvHVEkl16D3tYoeu2y1t770eSNG+dnOQjSR7keQJM21ZJ9mz3759aYOOXpHlsTZKXeNAfc2D4lep57der3vuVJM1jw9VWH0vy4PYDLUzE8LTKV3hgnyRNvZ+3y/tgngy3Cf6owP4lSfP+YMHXtgevw7IN95vet91v0ntjlqRFuNf/RUnO13v4w5Rs0e5fPb3A/iZJ89632tvXNu09/Klv03aZ/xEFNlxJWpSD9PV6D3+Ykau1t1r03u8kaRE6Ksk+bivk3GySZO+2kfTeUCVpEfpTkid4wj8L+qaARyf5Y4H9UJIWod8meawrAvir3ZJ8t8CGKUmL0iFJLtV7+ENnw9OrD/CQQEmaWT9Ksnvv4U8/10jy6QIboiQtSt9J7PK3MgAAIABJREFUcrPewx+KuWGSwwrsn5K0KH06ydV7D39mZ7j0Yz8P4pGkmTXcXvVwl/vDP7Rhe2DVLwvsr5K0CJ2W5L/areDMseGbHt+yS9Ls7vPfP8nWvYc/jOhHir3a/aq9919JWoS+nWTn3sOfydsgyZP86i9JM+mUJM9v9zgDy3eBJM9KclKB/VmS5r3T24OJh8+MzIHhl6d3F9iwJGneGx5mdnCSy/Qe/DAntm9X0ZxaYP+WpHnv/e0LWEbs2kl+WmBjkibdCUnenOQrBf4t0pok701yld5DH+bUPyV5R9vXeu/v0ueTvC3JiQX+LdKk+0GSq/Ye+qzM3dplqL03ImlSnZzknW3b3mKdB0c9oD1krfe/T4vXGUnekuSanec9LIrhpPQNbmlUp36V5F7rXCa9ZZJ7ti+AnXNr3p5hdJvO855lemA7Me298Uir7cwkhybZ8zwepLZVkn1dJqoZNWxnByW5wgznOvB/LtJm/nEF5oEW4weI4VaU869nm9yyvV/9kPZ09d7/Zmm1ndE+UzIC+xXYYKTV9uUkD0my7TK3/8sleVO7F7v336D56/dtxm43pfkNLM9wjHiytwZoSg1XmhyYZMdlbpcXaq9+/VqBv0FaTWuSPG5K85sJGC5HemmBDUVaaX9I8uIkO01gf9ipXZLnflFNop8neXS70gSoZ7gt7GFJflxgXmj8ndWeM3T5CWybwy1iL3G1ikbeMyawLzAFzy+wcUgr6bvtvc/D5XOTdr12OZ4vArSSE8APJ7lzko2nsG0Ck7dRkjsk+UC7haz3HNG4GraZt0/oh4izG75A/rckhxf4O6W1K2h4pTyFPLXARiEtt48lueWM3jm6U7s1wLMxdF79JsnTk1xqBtslMD07tvOjXxaYK6rd8AC/V7TbCKdtg3bu89ECf7e0dpk9cgb7CEvw+AIbg7TU1rR3jA6/zPdw6SQHJDm+wLJQnfzaD/N9VcDt27HHVQFat2OSPCvJDp22zeu4XVEja02S+3faX2juYWhoRH0oyTVSw/Ak30ck+V6B5aJ+HdEe6ufXflicqwKekuT7BeaP+vXVJPdLsnlq2Kl9QdV7uUhrl9BwNe1uvXeaRXWtJCcV2Aik8+rrSW6RmjZo/7Z3eoXgQj3Q77lJrt174wO6ukb79fcnBeaSZvNe8zckuX7qummS/y2wrKS1S3hw9yxumWEdF24nsb1XvnRer0wb3h+6Ycbhgu2qAAff+byvf7j144YzeuYEMC7DbWkv8LyAuby969Pt1/7zZRyGY9S9kxxVYPlJa9fTd9oVtczAJkk+W2ClS+treH3O9hmvq7RXnvywwLLUyhpeB/bfSW42oi+hgL6GWXHjJC80/0fdN9oTy4fn/ozVtkle7VZfFe+9zrFm48UFVra0vl9ab535u0x0eCq8e0brP8V5eLPE3kmu0HujAebC5dpTr4eHhJ5cYM7pH3dYkicmuXzmy3BbwE8LLF9p7T/I6wGn7G6+CVThPjzyX/2X4opJHpfkE0lOK7DMF73hpOjl7b3fW/beOIC5tkWS2yZ5abvCqPf8W/SG52AdkuRhC/Ag122SHFxgmUtrz6Uz29WWTMHwjeYfC6xk6dyeBvrvC3hv9XDf013bu4N/UGA9zHvDl5+HJ3llkvskuUTvDQBYaBdPcq/2JeRwL6wfaKZ/P/83k7yofREzfCGzaB7arnbrvS6ktWfryI6v05xbm7cnqfdeudLZO34OL/lfqYu1D6avabcLOBlcXae1BzIOD+b6lyTb9V7BAOfxINk7JXleki95s8xEflX8VrviYrgC1jHgL4aH2f6uwPqR1p6tTybZqPcOMk9eWWClSmfvV0mu3nvnKP4An9skeWqSjyQ5psA6q9qJSb6Q5CXtzRHXag88BRirTdozZB7QHkj6+fYqut7ztvI5xfuS/Ee7nHgsT+3vdVXwEQXWmbT2bD2t984xL+5TYGVKZ+/77fJHlufi7dLF4QTn7e2y0UX6leiU9ovOwe0tC8Pls1f2jTGwIIanZV8pyb+2h8se3C5rP2XB7t0fntL/piSPT7Jbkgv1XjEjNCyzrxVYn9Las92qc6veO8fYDSfGvi1WxQev7dh755gjw4ffy7YvBh6b5GVJPpjku+2X8bUj65h2cveB9ov+Y9qVEJfxqhiAc7Vhm5G3bm8yGWbn+9vtn2O8euyEJN9ux4ED2psUbtke1rdozwua9pcA3y6wvqW16zTcouJHwhXaqn0A6L0SpXX7dTtJYXaG+x6v2T5E79FODp/ebg16T5LPtofj/bZ98zrpdT5cofCHdrnhF9sJ3euSPKf9enP/9gvOlRb0oUwA07ZFewvNMGvv12bvc9os/kCbzT9ss/rUKd2Pf3Q7L/1Mkne1hx8Ol/s+Osn/b+/O4+4r63r/v5lRhEDBAecBxYEcMLVSyzHLtEkqy8xKadCjZh2xOiVlqWmmZKZoZY4p4VA4FWrOI5LzrDkkgoKCgsi4fo/1a92Pvud7vsC+73vt/bnW2s/n4/H659SJ9b33de219rXXvtYvDN/63XrYC4HV6TdesxGxWuvtSfasnhxT9IIGXjxp5xX9W1ZPDBa6UDxo6IbD3QX93URHDt19uIjcsSN36LDhDo/+/79v7AGmZ/fhPfw6w3v6ju/xO7//332H/9nhwznjBjucR/au/sdwha5nY0A12J9XT4ypeWgDL5q0Y/2O9j9bPTEAAPh/3G14LHP19aLU7fDZ4SerJ8ZUHDFskFL9okk71j/WCACANj2ugetFqduhb/jp8BXbf/gNV/WLJe3Y+/yOBwCgaf0Gi//awHWj1O3Qe/yU6PK9uIEXSdp545/bVU8MAACu0A0m+gQhzbtnVE+MVj2igRdH2rmnV08MAAAW9gcNXD9K3U79TPXEaM3tl/TYFmk7nTb8LAUAgGnob7f2aEC11tlJblI9OVpxYJLPNfCiSDv3mOrJAQDApj2kgetIqdupDw2Pq866b9bxygZeDGnnzvLtPwDAJO2V5AsNXE9K3U49O2vudxt4EaRd9fjqyQEAwJY9soHrSanbRb+UNfWDSS5s4AWQdq4fl4dUTxAAALZsP08EUKN9O8nhWTNXdVuOGu711RMEAIBte1kD15VSt4s+muTKWRO7Dx+wqv/o0mXVbxwDAMC0/XQD15VSdxm9JGviDxv4Y0uX1QXDHSoAAEzbvknOaeD6Uuouo1/JzN0tycUN/KGly+pN1ZMEAIDRvLqB60upu4zOS3JEZuoaSU5r4I8sXV5/Wj1RAAAYzeMauL6Uusvp00kOyAx/939yA39c6Yq6X/VkAQBg1DuQq68vpe4Kenlm5k8b+KNKi9TfqQIAwDzs7yfImki/mZm4T5JLGviDSlfUl6snCwAAo/tkA9eZUncFfTfJ7TJx10ny9Qb+mNIivbN6wgAAMDo/RdZU+sKUn0i2Z5K3N/BHlBbthOpJAwDA6F7QwHWm1C3YvyTZLRP0tAb+eNJmekb1pAEAYHRPbOA6U+o20aMzMT+e5NIG/nDSZvrf1RMHAIDRPbyB60yp20QXJvnBTMT1k5zVwB9N2mwPrZ48AACM7oENXGdK3Sb7UpKD07h9kpzSwB9L2kq/UD2BAAAY3f0buM6Uui302iS7p2HPauCPJG21n6qeQAAAjO4eDVxnSt0We1wa9bMN/HGk7fQj1ZMIAIDR3bGB60yp22IXD4tYTTksyTkN/HGk7XSX6okEAMDobtXAdabUbaPTk1wrjdg3yakN/FGk7XZk9WQCAGB0N2jgOlPqttmbk+yRBvxdA38MaYxuXj2ZAAAY3SENXGdK3Qg9vnoy/UIDfwRprPrVYQAA5uXKDVxnSt0IXZLk3lUT6ZZJzmvgjyCN1dWrJhMAAEuz2/DBqfpaU+pG6Iwk1171JNovycca+MdLY3aVVU8kAABW4tsNXGtK3Ui9Ncmeq5xAf9/AP1oauyY21QAAYHSnNXCtKXUjduyqJs9PNPCPlcbu/FVNIAAAVu6zDVxvSt2IXZTkTqvYQfP0Bv6x0th9Y9mTBwCAMh9s4HpT6kbus8v+GfMrGvhHSsvov5Y5cQAAKPXOBq43pW4JPWtZk+YhDfzjpGX16WVNHAAAyv1rA9ebUreELk3yI2NPmAOSfLWBf5y0rPrbwgAAmKdXNnC9KXVL/CnAPmNOmL9s4B8lLbN3jTlhAABoyosauN6UuiX22LEmy+FJLmzgHyQtszeNNWEAAGjOcxq43pS6JfatJIeOMVle18A/Rlp2J40xWQAAaNJfNHC9KXVL7gXbnSj3auAfIa2iE8Y5twAA0KBjG7jelLoVbAh45HYmylsa+EdIq+j5451fAABozGMbuN6UuhXUb3i5JXdq4OClyT8/EwCAcr/VwPWm1K3oLoBbbWWSvLaBg5dW1VPHP88AANCIX27gelPqVtSLNztBbj2sHFQfuLSq/mQ55xoAABrwgAauN6VuRV2c5LDNTJAXNnDQ0ir7veWdbwAAKHafBq43pW6F/fWik+OAJOc1cMDSKnvUcs85AAAUuksD15tSt8LOTnLlRSbH0Q0crLTqHrb88w4AAEVu28D1ptStuF9cZHK8p4EDlZqcHAAATNLNGrjelLoV90YTQ9p1P7Wacw8AAAWu18D1ptStuH5j/xtf3sT4swYOUqqo3xgGAIB5OqSB602pK+iPLm9ifKiBA5Qquuvqzj8AAKzYVRq43pS6gt53WZPiusMtAtUHKFV0h9WegwAAWKE9GrjelLqC+s/4h+5qUvxGAwcnVXXr1Z+HAABYoQsauOaUuoJ+ZVcT4qQGDkyq6vDVn4MAAFihsxu45pS6gk7ceTLsneTcBg5MquqGNechAABW5LQGrjmlrqBzkuy542S4fQMHJVW2y9/FAAAwG59v4JpT6lr4yfNvNnBAUmVXqzsXAQCwAh9r4JpT6op66I6T4e8aOCCpsv7RMAAAzNcpDVxzSl1Rx+84GT7cwAFJle1Vdy4CAGAF3tbANafUFXXqxkS4cpKLGjggqapLas9FAACswL82cN0pdUVdmGTfDJsBVB+MVNn51WcjAACW7tUNXHdKXWG36ifC/Rs4EKmy/pmwAADM2z82cN0pdYXdt58Ij2zgQKTKzqg+GwEAsHR/38B1p9QV9vB+IjytgQORKvtS9dkIAICle1YD151SV9hT+olwYgMHIlX2meqzEQAAS/fUBq47pa6wl/cT4d0NHIhU2Uerz0YAACzdnzRw3Sl1hb2znwgfaeBApMo+UH02AgBg6X6vgetOqSvsg/1E+FwDByJV9q7qsxEAAEv36AauO6Wu+qfPX23gQKTK/r36bAQTtFuSg5LcIMktknxfkh9KcmSSmyS5VpL9qg8SJuYqSQ5Nctgwl344ye2T3DzJ9Yc5B2zd0Q1cd0pdYaf1E+GcBg5EquwN1WcjaNzVkzwgyZ8l+afh9rHvLDi/Tk/y1iR/m+SxSe6cZO/qfxAU22dYMHtckr9L8o4kX1twTp2b5NRhI6cnJPnJJFer/gfBRPxSA9edUldY/9k/FzVwIFJl/1x9NoLG7JnkR5M8c9gk89KR59x5SU5O8vtJblr9j4UV6e+U+cMkb05y/shz6pIkH0pyXJJ7Jtmj+h8LjXpAA9edUldY/9m//CCk6k6oPhtBI+4wfIA4fcVz8L1JHpnkGtV/ABhZfzv/Y4Zv7Fc5p76S5GlJblv9B4DG3LeB606pK678AKTqXlR9NoJCuye5XyOPhL0gyQuH3zvDlN1kWEz7bgPz6h3DHO/37YB1d/cG5qTUFVd+AFJ1/W+TYR0/+D8kyScbmIO7up35xCS3qv4jwSb1G/f9yxJ+NjNGH07y8xYCWHPf38BclLriyg9Aqu5Z1WcjKPiQ8q4G5t4iv1M73gZnTMBVh2/8L25g3lxR7xt+7gPr6LYNzEGpK678AKTq/rL6bAQrctBwx8slDcy7zXRGkl+u/uPBLvTfpv96krMamCebqV+o+Osk+1f/AWHFbtHA/JO64soPQKruSdVnI1iB/hu/zzUw37bTK4dvWqEFBw+3+3cT7j+HW6JhXdy4gXkndcWVH4BU3bHVZyNY8jeUj0pyYQNzbYy+mOTO1X9U1t4PJ/mvBubDWD+1OXbYFwTm7joNzDmpK678AKTqfq/6bARLsm+Sf2pgji3jA8vDqv+4rK1fG8ZgN7NOHN4zYM4OaWCuSV1x5QcgVdc/oxnm5qrD47+6mdbvsu7uHVZ9N82xDYz9ZfZOm24ycwc0MM+krrjyA5Cqe0T12QhGdv0kn2pgbq2iZ3usGSuwR5IXNDDeV9FHkxxa/QeHJdmngTkmdcWVH4BUnVuJmZNrJvl0A/NqlfWPX4Nl2W14eka3RvWLAO4EYK7z+dIG5pjUFVZ+AFJ1D6k+G8FIvifJqQ3MqYr+uPqPz2w9tYHxXdH7PCaQmZrLprhSt8XKD0Cq7kHVZyIY6bbGdzYwnyr7reoXgdk5poFxXdnJSfasfhFgZN9qYG5JXWHlByBV9/PVZyIYwbMbmEvV9d/qeEQgY7l7kosbGNfV/Xn1CwEjO7OBeSV1hZUfgFTdz1SfiWCbHtjAPGqlrw77IMB2nxX+tQbGcwv1v5f+6eoXBEb0lQbmldQVVn4AUnU/WX0mgm24eZJzG5hHLfVvngzANnf8X/ef0+zcN5PcoPqFgZF8roE5JXWFlR+AVN19q89EsEX9h9w3NzCHWuxXq18cJuvRDYzfFntD9QsDI/lEA/NJ6gorPwCpuh+pPhPBFj2sgfnTamcluXr1C8TkHJrk7AbGb6v9bPULBCP4YANzSeoKKz8Aqbp7VJ+JYAuuPnzIrZ4/LfeC6heJyXllA+O25U4bHjcKU/aeBuaS1BVWfgBSdXetPhPBFvxVA3NnCpuXHVn9QjEZP9DAmJ1CT6h+oWCb3tbAPJK6wsoPQKquv+iDKel3uf9OA3NnCr2i+sViMk5uYLxOoXOSXLX6xYJtMNfVrXnlByBVd4fqMxFs0l82MG+mdBfAratfMJp3pwbG6pT64+oXDLbhNQ3MIakrrPwApOpuV30mgk24WpLzGpg3U+pl1S8azfOBYHP1GyXuX/2iwRad2MAckrrCyg9Aqu6I6jMRbMIjG5gzU+uCJAdXv3A069pJLm5gnE6tX6l+4WCLXtrA/JG6wsoPQKru5tVnItiEUxuYM1PsEdUvHM36/QbG5xR7S/ULB1v0/Abmj9QVVn4AUnWHVZ+JYEG3amC+TLVTql88mvWJBsbnVPfXuHH1iwdb8JwG5o/UFVZ+AFJ1N6w+E8GCntjAfJlyFvvY2e0aGJdT7veqX0DYgmc0MHekrrDyA5Cqu271mQgW9P4G5suU+83qF5DmPLaBcTnl3lT9AsIWPKWBuSN1hZUfgFRd/0x1aN2BNirbdv3Oz7Cjf21gXE657ya5UvWLCJv0hAbmjtQVVn4AUnWHVJ+JYAE/1cBcmXpnJdmj+oWkGft4pOYo3av6hYRN+j8NzBupK6z8AKTq+m9WoXVPbWCuzCFP/WDDHRoYj3Poj6pfSNgkP/1Rt+aVH4BU3VWqz0SwgJMamCtzqL+TAnq/3MB4nEMvqX4hYZMe08C8kbrCyg9Aqq6/DRRa99kG5socsms5G57UwHicQ6dWv5CwSf+rgXkjdYWVH4BUnd8E07p+kcoGgOP0guoXk2a8qoHxOIf6fRR2r34xYRN+o4F5I3WFlR+AVNml1WchWMCNG5grc+kt1S8mzfhAA+NxLl29+sWETfi1BuaM1BVWfgBSZRdWn4VgAbdpYK7Mpf5DH/Q+08B4nEv9IiVMxYMbmDNSV1j5AUiVfaf6LAQLuEsDc2Uu9R/6oHd6A+NxLvWLlDAVD2xgzkhdYeUHIFV2TvVZCBbwYw3MlbnUf+iDDL9drx6Pc+mu1S8mbMIDGpgzUldY+QFIlX2j+iwEC3CxMl7frn4xacalDYzHuXSf6hcTNuEnGpgzUldY+QFIlZ1RfRaCBRzVwFyZSxYA2FA9FufUj1a/mLAJ921gzkhdYeUHIFX2leqzECzAAsB4WQBgQ/VYnFMWAJiSezcwZ6SusPIDkCr7UvVZCBZgAWC8LACwoXoszikLAEzJDzcwZ6SusPIDkCr7QvVZCBZgAWC8LACwoXoszikLAEzJnRuYM1JXWPkBSJX9Z/VZCBZgAWC8LACwoXoszikLAEzJHRuYM1JXWPkBSJV9vvosBAuwADBeFgDYUD0W55QFAKbkdg3MGakrrPwApMo+W30WggVYABgvCwBsqB6Lc8oCAFNyRANzRuoKKz8AqbLPVJ+FYAEWAMbLAgAbqsfinLIAwJQc3sCckbrCyg9AquzT1WchWIAFgPGyAMCG6rE4pywAMCU3bmDOSF1h5QcgVfbJ6rMQLMACwHhZAGBD9VicUxYAmJLrNTBnpK6w8gOQKvtE9VkIFmABYLwsALCheizOKQsATMmhDcwZqSus/ACkyj5efRaCBVgAGC8LAGyoHotzygIAU3JIA3NG6gorPwCpso9Wn4VgARYAxssCABuqx+KcsgDAlBzYwJyRusLKD0Cq7CPVZyFYgAWA8bIAwIbqsTinLAAwJfs1MGekrrDyA5Aq+3D1WQgWYAFgvCwAsKF6LM4pCwBMyd4NzBmpK6z8AKTKPlh9FoIFWAAYLwsAbKgei3PKAgBTslsDc0bqCis/AKmy/6g+C8ECLACMlwUANlSPxTllAYCpubiBeSN1RZUfgFTZqdVnIFiABYDxsgDAhuqxOKcsADA132lg3khdUeUHIFV2SvUZCBZgAWC8LACwoXoszikLAEzNuQ3MG6krqvwApMreX30GggVYABgvCwBsqB6Lc8oCAFNzTgPzRuqKKj8AqbL3VZ+BYAEWAMbLAgAbqsfinLIAwNR8o4F5I3VFlR+AVNl7qs9AsAALAONlAYAN1WNxTlkAYGrObGDeSF1R5QcgVfbu6jMQLMACwHhZAGBD9VicUxYAmJozGpg3UldU+QFIlb2r+gwEC7AAMF4WANhQPRbnlAUApua0BuaN1BVVfgBSZe+oPgPBAiwAjJcFADZUj8U5ZQGAqfmvBuaN1BVVfgBSZW+vPgPBAiwAjJcFADZUj8U5ZQGAqfliA/NG6ooqPwCpsrdVn4FgARYAxssCABuqx+KcsgDA1Hy+gXkjdUWVH4BU2Vuqz0CwAAsA42UBgA3VY3FOWQBgaj7TwLyRuqLKD0Cq7N+rz0CwAAsA42UBgA3VY3FOWQBgaj7VwLyRuqLKD0Cq7M3VZyBYgAWA8bIAwIbqsTinLAAwNR9vYN5IXVHlByBV9sbqMxAswALAeFkAYEP1WJxTFgCYmo80MG+krqjyA5AqO7n6DAQLsAAwXhYA2FA9FueUBQCm5kMNzBupK6r8AKTK/q36DAQLsAAwXhYA2FA9FueUBQCm5tQG5o3UFVV+AFJlb6g+A8ECLACMlwUANlSPxTllAYCpeX8D80bqiio/AKmy11efgWABFgDGywIAG6rH4pyyAMDUvLeBeSN1RZUfgFTZ66rPQLAACwDjZQGADdVjcU5ZAGBq3tXAvJG6osoPQKrstdVnIFiABYDxsgDAhuqxOKcsADA1b29g3khdUeUHIFX2muozECzAAsB4WQBgQ/VYnFMWAJiatzQwb6SuqPIDkCo7qfoMBAuwADBeFgDYUD0W55QFAKbmzQ3MG6krqvwApMr+pfoMBAuwADBeFgDYUD0W55QFAKbm5AbmjdQVVX4AUmX/XH0GggVYABgvCwBsqB6Lc8oCAFPzhgbmjdQVVX4AUmWvrj4DwQIsAIyXBQA2VI/FOWUBgKl5XQPzRuqKKj8AqbJXVZ+BYAEWAMbLAgAbqsfinLIAwNSc1MC8kbqiyg9AquyV1WcgWIAFgPGyAMCG6rE4pywAMDWvbmDeSF1R5QcgVfaK6jMQLMACwHhZAGBD9VicUxYAmJpXNDBvpK6o8gOQKjux+gwEC7AAMF4WANhQPRbnlAUApubEBuaN1BVVfgBSZSdUn4FgARYAxssCABuqx+KcsgDA1FgAULfGlR+AVNnLq89AsAALAONlAYAN1WNxTlkAYGr+qYF5I3VFlR+AVNnLqs9AsAALAONlAYAN1WNxTlkAYGpOaGDeSF1R5QcgVfaP1WcgWIAFgPGyAMCG6rE4pywAMDUWANStceUHIFX20uozECzAAsB4WQBgQ/VYnFMWAJialzcwb6SuqPIDkCp7SfUZCBZgAWC8LACwoXoszikLAEzNyxqYN1JXVPkBSJW9uPoMBAuwADBeFgDYUD0W55QFAKbGAoC6Na78AKTKXlR9BoIFWAAYLwsAbKgei3PKAgBT89IG5o3UFVV+AFJlL6w+A8ECLACMlwUANlSPxTllAYCpsQCgbo0rPwCpsn+oPgPBAiwAjJcFADZUj8U5ZQGAqbEAoG6NKz8AqbLnV5+BYAEWAMbLAgAbqsfinLIAwNS8pIF5I3VFlR+AVNnfV5+BYAEWAMbLAgAbqsfinLIAwNS8uIF5I3VFlR+AVNnfVp+BYAEWAMbLAgAbqsfinLIAwNRYAFC3xpUfgFTZ86rPQLAACwDjZQGADdVjcU5ZAGBqXtTAvJG6osoPQKrsudVnIFiABYDxsgDAhuqxOKcsADA1L2xg3khdUeUHIFX2nOozECzAAsB4WQBgQ/VYnFMWAJgaCwDq1rjyA5Aqe3b1GQgWYAFgvCwAsKF6LM4pCwBMzQsamDdSV1T5AUiV/U31GQgWYAFgvCwAsKF6LM4pCwBMzT80MG+krqjyA5Aqe1b1GQgWYAFgvCwAsKF6LM4pCwBMjQUAdWtc+QFIlT2z+gwEC7AAMF4WANhQPRbnlAUApub5DcwbqSuq/ACkyv6q+gwEC7AAMF4WANhQPRbnlAUApubvG5g3UldU+QFIlR1XfQaCBVgAGC8LAGyoHotzygIAU2MBQN0aV34AUmVPrz4DwQIsAIyXBQA2VI+QtD6nAAAgAElEQVTFOWUBgKn5uwbmjdQVVX4AUmV/WX0GggVYABgvCwBsqB6Lc8oCAFPztw3MG6krqvwApMqeVn0GggVYABgvCwBsqB6Lc8oCAFNjAUDdGld+AFJlf1F9BoIFWAAYLwsAbKgei3PKAgBT89wG5o3UFZVLGzgIqaqnVp+BYAEWAMbLAgAbqsfinLIAwNS4A0DdmtZ/9s93GzgQqao/rz4DwQIsAIyXBQA2VI/FOWUBgKmxCaC6Ne38fgJ8s4EDkap6cvUZCBZw/wbmylw6q/rFpBm+ABmve1S/mLBJz29g3khdQf1n/3y5gQORqnpS9RkIFnDXBubKXPpC9YtJM05vYDzOpe+rfjFhk/6hgXkjdQX1n/3z/gYORKrqz6rPQLCAIxqYK3Ppw9UvJs34ZAPjcS7drPrFhE16YQPzRuoK6j/756QGDkSq6k+rz0CwgOs2MFfm0juqX0ya8e4GxuNcOrT6xYRNelED80bqCuo/++evGjgQqaonVJ+BYAH7Jrmkgfkyh15V/WLSjFc3MB7n0MVJ9ql+MWGTXtzA3JG6gv66nwAPb+BApKr+uPoMBAv6bAPzZQ7Z94MNT2pgPM6h/r0JpualDcwdqSuo/+yfuzVwIFJVx1afgWBB/9zAfJlDD6l+IWnGgxoYj3PoNdUvJGzBPzYwd6SuoLv3E+CA4fat6oORKnp89RkIFvTEBubLHLpj9QtJM27XwHicQ0+tfiFhC17ewNyRuhV3aZIDNybBhxs4IKmiP6o9/8DCjmpgvky9C5NcpfqFpKm9Nc5vYFxOvf5OCpiaExqYO1K34j624yT4mwYOSKro/9Sde2BTDrYR4LbzBAB29sYGxuXU8wQApujEBuaO1K2443ecBPdv4ICkiv6g7twDm3ZKA3Nmytnzg50d08C4nM23STAhr2xg/kjdivvJHSdBf0vkdxs4KGnV/X7duQc2zT4A2+su1S8gzbltA+NyyvWPkoYpelUD80fqVtgFSfbfeSL8SwMHJq26x9Wcd2BLvr+BOTPVzkiyV/ULSHN2T/LFBsbnVLtn9QsIW/TqBuaP1FU/seWBDRyYtOr62z9hSj7ewLyZYk+rfuFo1hMaGJ9T7MtJ9qh+8WCLfPGpbs36hV1NhP2SnNPAwUmr7LGrP+fAtjy2gXkzxW5d/cLRrBsNj0aqHqNTq184gak6qYE5JHUr6tuX9xSkZzZwgNIq+93Vnm9g266Z5KIG5s6UOrX6RaN5b25gnE6pfsHkJtUvGmzDaxuYR1K3op59eZPhFlbBtWY9ZnXnGhjNixqYO5O/7Q124GlIm6vfQA2m7HUNzCOpW1FHXNGEeE0DBymtqket5jwDozrMXQAL9+kke1a/YEzC+xsYr1Pp9tUvFmzTGxqYR1K3gl6/yIS4YwMHKq2qRyz/HANL8eIG5s8UelD1C8Vk/GQD43UK/XP1CwUj+LcG5pLUtfQIZLfFaF36reWeX2BpbpbkwgbmUMt91C7lbMJu7gK4wi5OcpvqFwpGcHID80nqltwbNzMpbu72Uq1Jv768cwss3RMbmEOt1u9n88PVLxCTc/vhQ271+G21p1e/QDCSNzUwn6RuiV2S5MjNToznNnDg0rJ72HLOK7ASV0ry2QbmUYs9r/rFYbKe0cD4bbEvJ9m/+sWBkXjyh7qZ9/dbmRhXTXJ6AwcvLbNfHf+cAit17wbmUWudPpzDYCv6D7lfamAct9ZPVL8wMKJ/b2BOSd2S+nqSg7c6OX6+gX+AtMx+edzzCZTwjeX/fcvbvapfECbvB+yx8X/1zOoXBEb21gbmldS1ugHyyxv4R0jL6pfGOY9Aqb2SvLOB+dRCf1D9YjAbj21gPLfQe5PsU/1iwMje1sDckrol9MoxJsiBSb7QwD9GWka/MMYkgQZcJ8kZDcypyk5Ksnv1C8GsngrwqgbGdfVtpNerfiFgCSyaq5thXxrzJ5B3SvLdBv5R0tj1P3OBufj+JOc2MK+qvqW0QRljO2CNHw347SR3rH4BYEne28Ack7oRu2D4+dqofqmBf5g0dkeNPVGg2D3WcMH2o0muVv2HZ7b6jZQ+1sA4X/WF5I9U/+FhiT7QwDyTuhE7elmT5SkN/OOkMfuZZU0WKPSANXqWef8YxGtX/8GZvX6M/WcD430V9Zsf/nT1HxyW7IMNzDWpG6m/XPbv4f62gX+kNFYea8Rc9WP7vAbm2DL7kA//rNChSf6jgXG/7Nv+f7T6Dw0r8NEG5pvUjdCLV7H/0Z5J/qmBf6w0Rvdb9oSB4j0Bvt7APFtGr0myX/UfmLXTb4z85gbG/zL6SpLbVP+BYUU+0cCck7ptduLw2Xwl+v/QSxr4R0vb7b6rmjRQ5LAkH29gro3VpcOtbis74cFO+kfi/UMDc2HM3pPkutV/WFihTzcw76RuG7204lpojyR/3cA/XtpO91n1xIEC+83k51tfS/Jj1X9MGDw4ybcamBfb6ZIkT0qyV/UfE1bs8w3MP6nbYs8aPouXefQabTal+XWvyskDK/ZzSc5uYN5tpTckuVb1HxB2cYfNKQ3Mj60+L/qe1X9AKPLFBuag1G1h0fa304i7JflqA38UabPdvXrywIr1j8s7bjiJdBPov4ZvWqFVuw9j9OsT2uW/fw/Yv/oPB4W+0sBclLpN9PUW71y+TpK3N/DHkTbTD1dPHChypyTva2AOXlb9rdV/nOTK1X8oWNAhSZ7b8F2R/f4Zr0pyk+o/FDTg9AbmpNQt2NuHz9pN6n+LcEySCxr4Q0mLdJfqSQPF7pzkpAbm4o4r3McmuWr1Hwa26IbDN+zfaWA+dcPdPv0cv331HwYacmYDc1PqrqCLhmui0t/7L+oOdtfURPrB6skCDd0R8I+FH1reneS3fOPPjFwzyZ8l+XLRnOr/u08dFiSA/9s3G7gGlbrL6ZNJvi8T3HX6uQ388aTLq//QA/yP/nfBv5TkdcNvhZd5O/KHk/yRW5JZgz0CfijJc1bwrePpwxM/7jb8d4Fdm/oTPDTfLk3y7Kl/IfITw6Obqv+Y0q7q71YBdq0/+dxj+C3+W7b5BIFzk5w6PD72AcPvpWHd9B/KvzfJ/0pywrAT/3ZuDf1Mkpcn+c0kt6j+x8GEtPITHanboTOS/HhmdBvc6xv4o0o7d2T15ICJOWS4c+ZBw54vj0/y5OGZtMcPtxz3/2+/k+RXh28im924BhpwpSRHJPnJ4fFOvz/MqWcMc+oZw08J+vn2G0nun+RmSfauPnCYMPuVqWusfq+Wq2dmdkty9PAtUPUfWNroNtUTAwCAlbq0gWtQqRvuRnnU8Fl5tvpb1D7QwB9b6oZbMQEAWA+7NXD9KXXD45hvmjWx53Ar2zI3mJIW6ZbVkwEAgJXZq4HrT613Fw8/9VrLn3L1G7B9ooEXQevb4dWTAACAle67UX39qfXtC0numjXX7zL9TL/FUVFrc9sNAAC5SgPXn1rPnjc8bpnBPbf5OBxpK924euADALAyBzZw/an16vQkP1E98Ft1wPDIm+oXSevTDaoHPQAAK3O1Bq4/tT6dkOTg6kE/BT+W5LQGXjDNv+tWD3YAAFbmGg1cf2r+fTPJ0dWDfYqT89UNvHiad9euHugAAKzMoQ1cf2revW4YZ2zRUUnObOCF1Dy7ZvUABwBgZa7bwPWn5tl5SR6VZLfqQT4H10ryLw28qJpf/Z0mAACshxs1cP2p+fW2YWwxMncDaOyuXz2oAQBYmVs3cP2p+XR+kmOS7FE9sOesv2Xb3gAaq5tXD2gAAFbmrg1cf2oefTjJbaoH9Dp5yLC7YvULr2n3g9UDGQCAlfmpBq4/Ne0uTHJskr2qB/O63g3wzw0MAk23B1YPYgAAVuYxDVx/atrf+h9ZPYhJfi3J2Q0MCE2v36sevAAArMxfNXD9qWl+6/943/q3dzfAKxoYHJpWL6keuAAArMxbG7j+1PS+9b9d9cDl8p8U8LUGBoqm0SeqBywAACuxe5JzGrj+1HS+9X9ykr2rBy5X7JAkL21g0Kj9Lkly1eoBCwDA0t2ygWtPTaNTk3xv9YBl834syZcaGEBquwdUD1QAAJbutxu47lTbXehb/+k7MMnzklzawIBSm/1t9SAFAGDpXtfAdafa7QNJjqgepIznLkk+1cDAUnudZZUPAGDWDkry3QauO9VeF/rWf772S/KM4Xff1QNNbXXf6sEJAMDSPKyB60211/t8678e7jQ8zqF6wKmd+kdIAgAwT+9q4HpT7XRekt9Jskf1wGR19kzyqCTnNjAAVd/FSW5UPSgBABjdkQ1ca6qd3pbkZtWDkjqHJXlTAwNR9T29ejACADC6lzRwnan6vpnk15LsVj0gacNRSb7ewMBUXecnuU71QAQAYDT9N70XNXCdqdpOcp3PrlzdCuHa95zqQQgAwGhObOD6UnV9NckDqgch7fthjwxc670Ablc9AAEA2La7Jrm0getL1XRCkoOrByHTcaXheZBuGVq/3m9HUACASeuf6f7xBq4rtfr+M8m9qwcg03W74QNh9UDWajumeuABALBlT2zgelKr7ZIkz0iyX/XgY/r6b4MfkeTsBga2VtOFSb6veuABALBpdxs+DFZfT2p1fTjJnaoHHvNzrSQva2CAazV93u+GAAAm5dAkX2ngOlKr6bzhzt29qgce819V/EQDA17L7+3Db8gAAGjbvkne28D1o1bTm5PctHrQsV6bBP5Jku82MPi13F6aZPfqAQcAwGXqvwF+VQPXjVrNo/0eWD3gWF83G1afqieCltvzkuxWPdgAANjlfl3/2MD1opZb/0jH45McVD3goHdUktMbmBhaXi/y+yIAgKb0P9W0R9f8+9TwM2xoykHDqpRdR+fba5PsXz3QAADI9yR5YwPXh1pe30ny+76Eo3W3S/LuBiaMlrcCeYvqQQYAsMYOT/KxBq4LtbzeMrzOMAn9pnG/keSsBiaPxu+cJA+qHmQAAGvo15Kc28D1oJbTGUl+sXqQwVYdPGwg52cB8+yVSa5ZPcgAANbAtYefY1Zf/2k59Z+XnpPkqtUDDcbgZwHzrV+BPjbJPtWDDABgphv9PSrJtxq47tNy+o8k31890GBsfhYw7z6f5GHDSQoAgO3ZN8nDk3yxges8LadvDq9x/yhHmC0/C5h3X0ryvz2jFABgy9fK/c7vpzVwXafldGmSFya5RvVgg1Xys4B5993hje2I6oEGADABtx4eqX1eA9dxWu4Tte5VPdig8mcBv57kzAYmo5a3wnlykvsNrzcAAP+tv/X7p4dHvlVfs2m5fTvJ7ybZq3rQQQv628WfnOSCBianltfnkhxjd1MAYM0dMGzs958NXJ9p+Z2U5PrVgw5adLMkr29gkmr5K6D9LW63rB5wAAArdNMkxw1PUaq+HtPy+2ySH6sedDAFPz3sKl89abXc+o0gX5fkR5LsVj3oAACWYPfhp5AnDz+NrL7+0vL7TpI/Gp7kACzIM0/Xq88MPw84sHrgAQCMYP8kRyf5eAPXWVrt7f43rB58MGWHDrvJWzFdj84Zfh5wePXAAwDYgpsMe1t9s4HrKq12d/8frR58MCd3TnJqA5Nbq/t5wKuT3MPPAwCACdzmf5/hp42+tFqvzk7y23b3h+W9uT44yekNTHatrk8PPw84uHoAAgDs4MDhJ6ufbeB6Savt0uEu5WtUD0JYlzfbp3ls4Np1fpIXJPn+6gEIAKy1uyZ5aZLvNnB9pNX33iR3qB6EsK6/sTqhgTcBrb5PDHcFHFQ9CAGAtXDAsKnfhxq4DlJNZw53fOxRPRhh3d0pybsaeFNQzV0B/e1Xt60ehADALB05bFB8bgPXParpoiTHJfme6sEI/I9+o7ijknyhgTcJ1XTKsDK/X/VgBAAmbd/huvIdDVzfqLY3J7lV9YAELlv/4e+Pk5zXwBuGavpGkqd7lCAAsEn9B72/HnZ2r76eUW39xo4/VT0ggcVde7hd65IG3kBUf1fAlaoHJADQpH2Gb/tP9gg/Jfl2kmOHu0CACbp9krc38Gai2vpHRz4xyY2qByQA0ITDkjwlydcbuE5RfRcneU6Sq1cPTGAcD0jyuQbeXFTbpcNvuX4pyZWrByUAsFJXSfKQJG/zbb92qL/744jqwQmMb6/hdvAzGnijUX3nDE8QuOewiSQAMO+d/L/VwPWH2unTw88/gDVY/e1/2/OdBt541EafSHJMkmtUD04AYBTXGp7Z/uEGrjPU3obRxwz7PwBruFHgxQ28EamNLh5uAztquGMEAJiOvZPcL8kJSS5s4LpCbXXRcO3vd/6w5m4xnCiq35TUVmcNJ4lbVw9QAOBy3TzJk/3MU5eT3/kD/4/+t+CnNvAGpfZ697B/xPdUD1IA4P93UJLfSvL+Bq4T1G4fTXKf6sEKtGu34fZvTwzQrjp/uFvExoEAsHq7J7nzcIfeeQ1cF6jdvjJ8ebNn9aAFpqHfFOR3h01Cqt/A1GafT/InSQ6vHqwAMHO3TPLEJF9s4Pyvtuuf9PB/PO4Z2M7tZU/xxABdQackefSw4zAAMM5mzf2XMf/RwHle7ddv+vgsG/wBY56EjktyQQNvcGq3S5K8Y7jl7IDqQQsAE9PvtfPgJCcNO7ZXn9c1nQ3+blU9eIF5usHwu7NLGnizU/v7BZw07CnRP5YIANj1zy77R/e9MMm5DZy/NZ3em+Su1QMYWA/9KqNHB2rRvjFc2Ng8EAD+ZzO//u7KrzVwnta0+tTwBYtrKmDlfiDJWxp4I9R0+tJwwXPb6sELAAWb+R3raUvaYmcmOWa4awSgVH/r2ocbeGPUtOo3NvqdYY8JAJij6yZ5bJIPNXDe1TTrfxryBPsrAS3ezvYgq9raQv2eEv+e5OGeJADADPQL2/8rydvsm6Rt1G++/cwk16ge0ACXZ69hF/jTGnjj1HSfJPAodwYAMCHXGc5d/TnMh35tp0uGvbZuXD2oATZjv+GWt6838EaqaS8GPHq4hRIAWnL9JI9J8q4klzZw3tT0e7VH+gFzWAg4ZtgJvvpNVdPuY8PmSTepHtQArK3r7fBNvw/9Gqt3eqQfMDdXGRYCvtnAm6zmsxhw0+qBDcBafNPvQ7+W0UeGR/oBzNZVhw9uZzfwpqt5LQbcrHpwAzAbN/ChX0vsk0kePGyiDbAWDknyF0nOa+BNWPPpA0l+P8kR1QMcgMm5dZI/TPLBBs5nmmdfTvLQJHtWD3aAKtdMclyS8xt4U9a8+nySZyS5x/B0CgDY0d5J7jU8au0LDZy3NN/OGDaM3Ld60AO04upJnmwhQEvq3CQnDbfbHVg92AEoc9Dwm+sX2pdIK+jM4WeKB1QPfICWN9p5XpILGnjT1jy7MMkbh9923rB6wAOwdP3z1H87yZuTXNTAeUjz76wkf5Bk/+rBDzClx+z4aYBW0eeGsXZnm/EAzEL/Xn7k8M3rKQ2cZ7Q+fWu4o9XdhgBbdI3hjfQ7Dbypa/59fbgttL891Ko9wHRcKck9hwXdrzRwPtF69e3herX/iQkAI7hWkqd7aoBW2HnDvgEPT3KT6gkAwP/jpkkekeQ1vihQ4Qf/JyW5WvVkAJjz4wP7W/rObuBNX+v3VIHjh7sD3NoHsHr7Dd/y99+0fryB84LW+0uC44anWQGwAlcbFgLs4KuKLh5+V9pfhNo7AGC5v+U/JsnJNghWA10wfBlwaPXkAFhXBwwXBt9o4KSg9d474IQkRye5TvWkAJj4Y4GPGj5k+S2/Wum7w5i8dvUEAeC/9bdk/9Hw2JXqk4TWu0uTfDDJnye5e5J9qicHQMP698h7JHlKkg8N76HV7+PSzrv69wtTADSo37n9d5Oc1sBJQ+o7d9ig6pFJvtfPBYA1178H3jrJo5K81ua+arT+J6Z/kuSq1RMGgMXsneTBST7ZwElE2vnbhJOHn670v221IADM3Y2Gn0j1P5U6s4H3YemyOnPYY8rj/AAmqv9wdb8k72/gpCLtKgsCwJw/8H+9gfdZ6Yr6+vDB/3uqJw8A4+l3a39jAycZ6YouQk6yIABMiA/8mmpnDOfbK1dPIgCWuxDQf8Cy0ZCm0Nd2WhDYrXoCAWtv4wP/C5P8VwPvk9Jm++KwD8WVqicTAKtzmyQvG57pXn0ikjbzbcUrh80u+8WsfasnEjBr/XvMDyb5nSSvGN6Dqt8Hpa32qSQPHfaKAmBN3TDJcUnOb+DEJG22i5J8bHg+cb/x5S2rJxQwaYcOe+f0jz57h3OjZtJ/DOfIPaonGADtuPbw7PazGzhRSdvpK0lOTPKYJD8wPGcbYGf7DO8R/XvFP7mdXzPs35Lco3qiAdC2qwy/C/tCAycuaYzcJQD0ruXbfa1Blwx759yxesIBMC17JvmFJB9o4GQmjd2Xhx27+80F75XkatUTDhjVVZPcM8ljh7n+pQbed6Rl9t1hofsm1ZMPgOnz5ACtQ6cN4/zY4VvCfqdvoH0HDeepRw078/d3/DhfaV361rCXU/9TTgAY1WHDSeY7DZzwpFX0jeFW4eN2+PmARxFC/SZ9xw4Ldp9r4H1CquiMYR70C2AAsPTfUT5x+HBUfQKUVt1ZSU4eNs38uSQ3tSgAo9ttuJX5Z4ff7PebmZ3ZwPyXqvtkkl/3GFwAqjYMPHp4rmz1CVGq7ILhtuMThm9kjhruFti9epLCRL7Vv+dwC//xw10332pgXkst9Y7h3OJRfgCU22P4luadDZwgpZY6N8n7k/zDsBnZfZPc0B0DrKF+zN8gyY8l+d9Jnp/kfUm+3cA8lVrtwiQvTnK76gkMAJfldsM3OB6vJF127hhgznyjL22vc4a9Z65XPZkBYFHXGB6x9l8NnEilKS0MfG7YY+D4YQ71iwNHJrlS9aSGXXzIP3r4jX6/mHWKD/rStvr88L5/YPUEB4Ct2nv4APPuBk6s0pS76HIWB/avnujM8r37RpfxId+TYKRxO2V40sye1RMfAMZ01yQnJrm4gZOtNLe+kuStSf4+yR8m+eXhw9vNhw07YUdXTnJ4krsPHzz+IMnfJvn3JF9OcmkDY1qacxcPi2p3qn4zAIBlu36Sp3iMoLTy35T2+w7867AB2x8Pj5L68STfm+Tg6jcGRnPVJLcaNtx76LDPRP/h/vVJPprkmw2MR2ld6+ff04YNYQFgreyX5DeSfLyBE7Kk/9688zPDnQQvSvIXw47tv5Lk/kl+IMnNklyt+s1jDfW/CT4syfcPizYPSfI7Sf48yQuHb+77R7K6PV9qs48Mi679tQ8AZN0fD3XvJK/28wBpMvVz9YzhroK3JXllkucm+bMkvz3cVt5/A33HJDdOcs0kB1S/2TSg/znG1Yff198+yX2SPGjYMf8JSf4mySuSvGX4tv6rw/4P1a+3pK29T/bvjXerfuMBgFb1j7z50ySnN3DilrScvjXM8X5Tww8kefvw04QThj0MnjlsOve4JI8cbmM/aujHh70NNrrLsBHiRt87fLjeqP/J0UGX0XV2+t+95U7/t35gp//Wj+5wHL+a5BHDZoxPGh7Z9bzh3/D64S6KfmOvzyY5LcnZDfzdJa2mM4f3sP79BwDYxNMD+h3PbUYlSZJa7z+Gp2b0m2wCAFt0s2El3aaBkiSppS5JctJwlxAAMKL9h00DP9TACV+SJK1vZww/Wbx29cURAKyD/ve5x9vxWpIkrbBThtv8r1R9IQQA6+jqwyZcn2/gokCSJM2vs4cvHY6ovugBAP7b7sPv7/oduC9s4GJBkiTN49v+/aovcgCAy3bQcML+SAMXD5IkaVqPKe2/7b9N9cUMALD1vQLObeCiQpIktdkHhi8PrlJ94QIAbN/3DCf2Uxu4yJAkSfWdP/x00CP8AGDG7pDkucNtftUXH5IkabW9P8lvDV8OAABrYt8kRyU5OcmlDVyQSJKk5fSN4SeBt62++AAA6t0qydOTnNHARYokSdp+Fyd5TZKfSbJ39YUGANCePYbfAr4wyXkNXLxIkqTN9ekkxya5fvVFBQAwHQcOGwe+w08EJEmazIZ+u1VfQAAA03b48G3C5xu4yJEkSf/dKcNi/f7VFwoAwPzsnuReSV7kJwKSJJX0n0n+NMnNqi8KAID1cSVPEZAkaSWdPezP4xZ/AKDcDZM8PslnGrhIkiRpDl2Q5FXDLv77VJ/oAQB25Zb2C5AkaVu/639UkkOqT+gAAJvZL+DOSY5LckYDF1SSJLXaF5I8Oclh1SdvAIDt2jvJ/ZK8NMm5DVxoSZJU3deTPDPJHatP0gAAy9w88H7D84ovaOACTJKkVfXNYTO//jy4V/UJGQBglQ5M8uAkJyW5qIELM0mSxu68YdH7fsMdcQAAa+/QJI9O8h6PFZQkTbxvDz97+4kk+1afYAEAWnadJEe7M0CSNKHOH85b/Z1tV6k+kQIATNHBO/xM4MIGLvAkSdrVh/79q0+YAABzWwx4aJLX20BQklRU/zSbE5P8YpIDqk+MAADrsoHgUcNuyh4tKElaZt8YNvJzez8AQCOPFuwXA77VwIWiJGn6fc0j+wAA2nblJD+d5PnDxVv1BaQkaTp9IsmTknxfkt2qT2gAACxu9yRHJjk2ySkNXFhKktrrY8N5oj9fAAAwEzdO8ugkb/J4QUla653735DkEUmuW31iAgBg+fbbYd+AbzRwQSpJWl5nDO/3/eaxdu4HAFhjeyS5c5InJ/l4AxeqkqTtdcnw068nD+/vfs8PAMAu3SLJMUnekuTCBi5kJUlXXH831z8meVCSg6tPJAAATPOpAvccvkX6WAMXuJKk/+lzSY4b3qc9qg8AgFEdNmwcdVKScxu4+JWkderMJC9P8tAk16s+IQAAsD723Okxg5c2cHEsSXPqoh1+y3/P4X0XAADKHTLsMH18kq80cOEsSVO9rb9/H7VjPwAAk7B7ku9L8gdJ3pTkOw1cVEtSi52e5EVJHpzkWtVv3gAAsF37JPmh4ecCb03y3QYuuiWporOHfVR+J8mtPaIPAIC5u0ei1ZEAAAVGSURBVNLwbOr+cYMnWxCQNOO+NbzPHTO879mtHwCAtbbxuMFjhwvlCxq4aJekrfS14Rv+Y4aNUvufRAEAAJdhv2FBoN/5+h1JLmzgol6SdtUZO33gd0s/AABsQ78T9r2TPD7JvyY5p4GLfknr2aeSvCDJ0UkOr35zBACAudsjyS2HXbP7x2V9LMmlDXwwkDSvzh3uQjpueCzf1avf/AAAgOQaSe63wz4C5zfw4UHStDotyQlJHjVs2Ld39RsbAABwxfYcfo/bX8i/MMkXGvhwIamd+r1FTtnh2/1+EREAAJiJGyR5QJInJfm3JGc18CFE0vLr7wh6b5K/SfLQJLcdFgkBAIA1cugOPx04aXiEV/WHFUnb+2b/Y8OdPxu38u9T/UYDAAC0yaKANI0u2MWHfb/bBwAAtuUmSX4uyVOGTQa/2sCHH2md6vfxeG2SJyf5xSS3GJ4IAgAAsHQHDt84Hj1sJNYvDLhbQNpe3xwevXf88K3+PZMcUj3ZAQAALusnBPccPrwcP3yYOa+BD1ZSq7fvHzP87OZGSXarnsAAAADb0e84frPhKQT93gInJvnE8CGo+oOYtMy+lORNSZ6d5DFJ7pvkxkl2r56UAAAAVXcMHD38vvmE4fnk32ngw5u0SN8YxuwJwxh+cJIjk+xfPbkAAACmctdAv/ngjyZ5ZJJnJnlDks8luaiBD31ar05L8u4kL0vyZ0l+OcmdklyteqIAAADM2d7DTwp+PMmjkzx9+FnBe4YPapc28IFR0+mSJF8e9qt48fAB/2FJ7j2Ms32rBzwAAACXvUBwwyR3SfKgJL+X5FlJTkryoSRnNfChU6urfzrFR5L8W5IXDPtQ/EqSuw+/x+/HCwAAADN15SQ3H77l/dXhQ2G/Udsrk7x92KTwzAY+vGrXXTB8a9/flv/Pw2v3+CS/nuT+Se6Y5Do+3AMAALCZvQiuleSIJPdI8sBhT4I/SfKcJK/aYcHAnQVb69xht/z+7ox/T/KKJM9L8pQkjxs2iHzA8I39LZMcXD0oAAAAYK8k10hy0yS3H55w0H94/bUkvz3cafD04QNuv2v8a5KcPOwi/9Fhk8Ozhg/FLX/73u98/8UknxqO/a3DLfYnDM+2P374AP+E4Tn3Dx82zuu/nb9zklskuWaSfapfMAAAAGhB/wH5oKEbJLlRksOHx8z13W1YZNi5/oP2UbvoPjv97919h/9bG91y+O/s2MHDMexW/QcBAAAAAAAAAAAAAAAAAAAAAAAAAAAAAAAAAAAAAAAAAAAAAAAAAAAAAAAAAAAAAAAAAAAAAAAAAAAAAAAAAAAAAAAAAAAAAAAAAAAAAAAAAAAAAAAAAAAAAAAAAAAAAAAAAAAAAAAAAAAAAAAAAAAAAAAAAAAAAAAAAAAAAAAAAAAAAAAAAAAAAAAAAAAAAAAAAAAAAAAAAAAAAAAAAAAAAAAAAAAAAAAAAAAAAAAAAAAAAAAAAAAAAAAAAAAAAAAAAAAAAAAAAAAAAAAAAAAAAAAAAAAAAAAAAAAAAAAAAAAAAAAAAAAAAAAAAAAAAAAAAAAAAAAAAAAAAAAAAAAAAAAAAAAAAAAAAAAAAAAAAAAAAAAAAAAAAAAAAAAAAAAAAAAAAAAAAAAAAAAAAAAAAAAAAAAAAAAAAAAAAAAAAAAAAAAAAAAAAAAAAAAAAAAAAAAAAAAAAAAAAAAAAAAAAAAAAAAAAAAAAAAAAAAAAAAAAAAAAAAAAAAAAAAAAAAAAAAAAAAAAAAAAAAAAAAAAAAAAAAAAAAAAAAAAAAAAAAAAAAAAICszP8HYiJ/3CM6k84AAAAASUVORK5CYII=;" parent="1" vertex="1">
          <mxGeometry x="-69" y="296" width="94" height="94" as="geometry" />
        </mxCell>
        <mxCell id="vIerb1oqOkuDAjDOQs4c-236" value="Bedrock Agents" style="sketch=0;points=[[0,0,0],[0.25,0,0],[0.5,0,0],[0.75,0,0],[1,0,0],[0,1,0],[0.25,1,0],[0.5,1,0],[0.75,1,0],[1,1,0],[0,0.25,0],[0,0.5,0],[0,0.75,0],[1,0.25,0],[1,0.5,0],[1,0.75,0]];outlineConnect=0;fontColor=#232F3E;fillColor=#01A88D;strokeColor=#ffffff;dashed=0;verticalLabelPosition=bottom;verticalAlign=top;align=center;html=1;fontSize=12;fontStyle=0;aspect=fixed;shape=mxgraph.aws4.resourceIcon;resIcon=mxgraph.aws4.bedrock;" parent="1" vertex="1">
          <mxGeometry x="-66" y="509" width="78" height="78" as="geometry" />
        </mxCell>
        <mxCell id="vIerb1oqOkuDAjDOQs4c-275" style="edgeStyle=orthogonalEdgeStyle;rounded=0;orthogonalLoop=1;jettySize=auto;html=1;flowAnimation=1;" parent="1" source="vIerb1oqOkuDAjDOQs4c-237" edge="1">
          <mxGeometry relative="1" as="geometry">
            <mxPoint x="304" y="562" as="targetPoint" />
            <mxPoint x="18" y="750" as="sourcePoint" />
            <Array as="points">
              <mxPoint x="151" y="750" />
              <mxPoint x="151" y="562" />
            </Array>
          </mxGeometry>
        </mxCell>
        <mxCell id="vIerb1oqOkuDAjDOQs4c-237" value="Chatbots" style="shape=image;verticalLabelPosition=bottom;labelBackgroundColor=default;verticalAlign=top;aspect=fixed;imageAspect=0;image=data:image/png,iVBORw0KGgoAAAANSUhEUgAAAgAAAAIACAYAAAD0eNT6AAAAAXNSR0IArs4c6QAAAERlWElmTU0AKgAAAAgAAYdpAAQAAAABAAAAGgAAAAAAA6ABAAMAAAABAAEAAKACAAQAAAABAAACAKADAAQAAAABAAACAAAAAAAL+LWFAABAAElEQVR4Ae2dB7gtRZW2QSRKumSJF1DAHMBAEkTMIiIIRnTGNCooKojj/CqijhgwjY6j4ygyKpgQRMUsKkkHjKCAhMslI5K5ZPy/796zufvss0N37+5e1d1vPc939tnd1bXWequ6unaH6mWXIUEAAm0ncD8FuKX0EGlzab60ibSutPaMVtTnCtIDJBIEukLgVgV6p3SH9PcZ/U2fl0oXz+gv+rxIuldqVVq2VdEQDAQgYALzpR2lHaTtpIdJHNgFgQSBggQ8UDhbOlM6TTpVukRqdGIA0Ojqw3kILCawqv7uLj1jRpstXsofCECgSgILVPgPpJOkn0oeJDQqMQBoVHXhLATuI+Bf9M+R9pWeKa0skSAAgRgCt8ns96WvS9+VFknJJwYAyVcRDkJgFgGfzn+Z9GpprVlr+AIBCKRA4CY5caz0Wem3KTg0ygcGAKPIsBwC6RC4v1x5vvRW6fHpuIUnEIDABAK/1vojpeOkeybkrX01A4DakWMQApkJ+K78V0mHSPMlEgQg0EwCforgw9IXJD91kERiAJBENeAEBGYR8C/+V0j/T+KGPkEgQaAlBBYojsOlo6XwMwIMAFQLJAgkRGBb+fIZ6XEJ+YQrEIBAuQR+r+JeL51ebrH5SvMEISQIQCCewDy58AnpNxIH//j6wAMIVEng0Srccwn4TMC6VRoaV/Zy41ayDgIQqJyAz8LtL50o7SZxVk4QSBDoAAHv64+SXil5JsL/k/4h1ZbobGpDjSEIzCGwqZb4F8Auc9awAAIQ6BqBnytg/xi4rK7AuQRQF2nsQGA2gRfq6x8kDv6zufANAl0l8GQF7j5hn7oAMACoizR2ILCEgO/wP0I6RlpzySL+QgACEFhMwJN7fUPyJEJ+DLjSxCWASvFSOARmEdhQ37xz+yU9JAhAAALjCJyilS+QrhqXaZp1DACmoce2EMhOYEtl/aHkTxIEIACBLAQWKJNf8nVelsx583AJIC8x8kMgPwG/ktfP+3Lwz8+OLSDQZQLzFbxfP7x9FRAYAFRBlTIhsJTAbvr3Z1LYs75LXeE/CECggQR8X8CPJZ8JKDUtV2ppFAYBCPQT8At8/BKQVfoX8j8EIACBnAR8Q6Bf/X2hdHbObUdmZwAwEg0rIDAVgRdp62Ol5acqhY0hAAEILCHg4/Ve0vlSKYMAbgJcApa/ECiTwFNU2PekFcsslLIgAAEIiMBd0nOlH0xLgwHAtATZHgKzCTxOX33Nf9XZi/kGAQhAoDQCi1TS7tJULxNiAFBafVAQBJZ5kBj4BR/rwQICEIBAxQSuVfk7S+cWtcMAoCg5toPAbAKe5MeP62w2ezHfIAABCFRG4GKV7InFCk0WxGOAldULBXeIgG/08w1/HPw7VOmECoEECGwuH/ykUaFpg3kKIIEaxIXGE/i0Iti78VEQAAQg0EQCm8jpNaTcNwVyCaCJ1Y3PKRHwW/38Yh8SBCAAgUgCL5Dxb+ZxgAFAHlrkhcBsAhvrq1/f6Zm6SBCAAAQiCdwg44+SFmZ1gnsAspIiHwRmE/C+82WJg/9sLnyDAARiCPj14l+UMv+w5x6AmIrCavMJvEohHNj8MIgAAhBoEQHfFHiFdFaWmDKPFLIURh4IdITA2orTr+f0Z9PSP+SwpxE9U/KUoo7jAukWyacQ/emZxkgQaDsB3zn/AGnezOeD9bmVtLW0nfQwqYnHyBvl90MlDwRIEIBAyQT+W+X5QNoU+cD+eckvE2GSIkEgQSADAe8r+0lfkLwPNWV/t59fl0gQgEDJBPxe7nuk1DuDe+Xj9yV3YCtJJAhAoDiBlbWpn/jxo3bet1Lf/+3fLhIJAhAoiYDvmfmtlPLO78HJidK2EgkCECifwCNU5NHS3VLKfcHv5R/3+QkCCQJlEPCNfynv8P514uuXJAhAoHoCD5GJH0sp9wkvrx4DFiDQfgK+YegiKcWd/XL5tX/7q4AIIZAkgT3k1SVSin3DxfLLfRcJAhCYgsDrtW2KO7hn/lpzirjYFAIQmJ6AnyT4tpRiH/Hq6cOjBAh0l4Cvo10opbRz3y5/3iQ18TEluU2CQCsJvEZR3SGl1Ff4zCX3ArSyuRFUHQR8J31KO/T18udJdQSODQhAIDeBXbVFao8N7p07CjaAAAQWEzhDf1MZAHhyD8/3TYIABNIl8Bi5dqWUSr9xWrqo8AwC6RJ4rFxLZSf2wf9B6aLCMwhAoI+AZxa8Skql/3h0n2/8CwEIZCDwX8qTwg7s6T39q4IEAQg0h4DnDPAluxT6kE81BxueQiCegOcJ94E3euf1DX9c849vD3gAgSIEnqyNUrgx0AMRz2hIggAEMhB4ofJEH/xt/w0ZfCULBCCQLoE3y7UU+pLnp4sIzyCQFoHj5E70Tvsd+cCjfmm1C7yBQF4C3odT6E++ltdx8kOgiwRWVdCLpMgBwKWyzyQ/XWx9xNxGAvMUlGftjOxTbpV9X9okQQACYwg8T+sid1Tb3meMf6yCAASaR+BFcjm6X3l287DhMQTqJfBZmYvcUX9Yb7hYgwAEaiLwE9mJ7Ft4GqCmisZMcwkskOtRO6lfM8pb/ZrbdvAcAuMIPFQr/druqP7lgnHOsQ4CXSewuQBE7Zy2e0zXK4D4IdByAt9QfJF9zCYt50t4EChM4KXaMmrnvFe2H1nYczaEAASaQMDTeXtfj+pn/IjzMvfzHxIEIDCLwPazvtX75Qcy98d6TWINAhComcAfZO9HNdvsN7ejvzAA6EfC/xBYQmC7QBBHBdrGNAQgUB+Bo+szNcfStnOWsAACEFg8KL5FHCJOzfkVokzVSSOEQDcIeF/3Ph/R19wsu8tyBqAbDY0osxPw2/aiJsr4lmzflt1VckIAAg0m4H39+CD/PdHZ5gwAguhjNlkC2wR6xrP/gfAxDYEAApH7/EMYAATUOCaTJuBHACOSTwP+IsIwNiEAgTACP5Vl7/sRaT4DgAjs2EyZwPwg586W3auDbGMWAhCIIXCNzP45xjSXAIK4YzZhAlETZJyVMBNcgwAEqiMQte9vyhmA6iqVkptJYN0gt88NsotZCEAglsB5QebXYQAQRB6zyRJYJ8izqE4gKFzMQgACMwSi9n0GADRBCAwQ8Du7I9JFEUaxCQEIhBO4MMiDtTgDEEQes8kSWCXIsxuD7GIWAhCIJRC176/CACC24rGeHoEVglzyzFwkCECgewSi9v0Vl+0eayKGwFgCd2vtcmNzVLNyRRV7ZzVFUyoEIJAwAe/7twf4dw8DgADqmEyaQNSkHOyLSTcLnINApQRC+h0uAVRapxQOAQhAAAIQSJMAA4A06wWvIAABCEAAApUSYABQKV4KhwAEIAABCKRJgAFAmvWCVxCAAAQgAIFKCTAAqBQvhUMAAhCAAATSJMAAIM16wSsIQAACEIBApQQYAFSKl8IhAAEIQAACaRJgAJBmveAVBCAAAQhAoFICDAAqxUvhEIAABCAAgTQJMABIs17wCgIQgAAEIFApgftXWjqFQwACbSHg9yPsKO0p7SBtIfnVyctLJAikQuAuOXK95NdrnyqdIJ0m3SORBggw//gAEL52nkDInNyinuq+uLJ8e5P0FmldiQSBphG4Rg4fKf2HdFuizof0O6l2OonWEW51gEDIjiiuKe6L+8qvj0obdaDeCbH9BC5ViB7IfjPBUEP6He4BSLAl4BIEggl4MHKYdKzEwV8QSK0gsImi+Lp0hMSxTxBS/NUht0gQCCMQMhJXtKnsi+4Yj5H8658EgbYS+JoCe7F0byIBhvQ7jIISqX3cgEAiBN4vPzj4J1IZuFEZgf1U8uGVld6QglP51dEQXLjZAQIhI3FxTWFf9IHfv4xIEOgCAe/rL5C+lUCwIf1OCp1OAuxxAQL3EQjZEWU9el/03f7nSb5OSoJAVwhcrkC3khYFBxzS73AJILjWMQ+BRAgcJD84+CdSGbhRGwHf5HpAbdYSMxT9qyMxHLgDgWVCRuLiHrkvepKfKyWe82cH6CKBqxW0BwKRkwWF9DucAehicydmCMwmsJO+cvCfzYRv3SGwvkLdvjvhLo2UAcBSFvwHga4S8PS+JAh0mUAn9wEGAF1u8sQOgSUEPLc/CQJdJtDJfYABQJebPLFDYAmBLQABgY4T2LKL8UfeeNRF3sScPoGQm3GEJXJfvEP2V0i/avAQApUR8D6wUmWlTy44pN9J8XXAfr3oNtLWkp/P9OeDpNWkB0h+Bak/nW6V/OrHW2Z0gT79LLN1vnSudJdEggAEIAABCECgj0Dkr46eG34EyQf8HaXdpadJa0hlJE/ucJr0E8nvhv61xIBAEEgjCYSMxOVN5L7o16XyFMDIJsGKDhDwo4AbBMYZ0u9EdjoPE+yXSa+Q/BhGHek6GfGrIP9XOqUOg9hoHIGQHVGUIvfF02X/iY2rKRyGQHkE/APRj8NGpZB+p+6bAH0a3+9jPntGh+qzroO/TC2zlvQa6VfSn6Q3S6tKJAh0mYA7PxIEukyAfaDC2l9dZftg/3fJI52UdKP88fuhPTggQSCqbUaS31nGo+LGLuxTaAPRjwGGMKj6tOMq6ljeIb1R8q//lNNNcu4TkgcD0S+GSJlT233zjhiRqt4Xx8Xk+3CukNYbl4l1EGgpAV//31C6NzC+qH6nspD3UMkXSyEjmynsXqZt95dI3SQQ1V6jab9NDkTFjl3YR7aBt0bvfFH7XhW/OvxGsf+UnpMA1GlcOFEbv0G6dJpC2LZxBNwRRaQq9sU8caykzH58dtM8G5EXAg0n4B98W0m3BccR0u+UfROgD/q/k5p+8Hdb8BkMx/JsfyFBoOUEbld8/iUU0hG1nC3hpUnAbd2Xp6MP/mnSyeHV/ZX3MMmvUzTUNsnXhXxvwAoSqf0EotpuKmTfL0eiGGAX9nW2gcNT2ekC97mpEfju+VMCA6irwfxSMc6bmhYFpE6grvY0aCcVLj4reKw06B/fYdKmNnCM2njZZ8Cn2Yej2E7j8zIP1NZ/kKKcr9vuOYrV9ziQ2kug7jbVs5cSUd+PcJjks189//iERRvagNu0n/RK6eAvd8L2M9sulLbRVpdIbWgUeWK4XDE/ohAxNmoCgTxtocy8KbLZW04tlMqMk7LgGdUGfLzaK8UdLXAfK4TjIdrqb4FORzWgnl3H7gEQqX0EenVc92eqJFeSY4dIV0l1M8EezMtoA267B0tuy6mmMuLMXUaRR482EkFPm7hZqiRr8usy2fELjPwLidQeAt6JIlKRfbFOP33K1LOl7TnzuaU+fU8MN8cKAikZAnfKk+ulCyUfp06Q/K4Ln/pPOYX0O3k7nTVF8BfSI1MmWaNvf5atnaXrarSJqWoJhOyICinvvlgtBUqHAATqJBDS7+S5EWJ50fiuxMF/abN4qP49XjIbEgQgAAEIQKCVBD6iqDxKQXMZfLCVNd7NoKLadzdpEzUEIGACSfc7z5KDPBI0upLMxtdGSc0nkPSO2Hy8RAABCAwhENLvZLnu6OfePSXu2kOcZtFSAtfq38dIvjmQ1FwC3hEjUpZ9McIvbEIAAtUTCOl3stwD8GnFzsF/cgNYR1k+NTkbOSAAAQhAAALpE3ieXAw5NdFgu36JEKm5BKLae3OJ4TkEIDAtgZB+Z9xpx1UU0dnS5tNG1rHtPS+Anw64tWNxtyXckFNxgjduX2wLW+KAAASGEwjpd8ZdAniH/OTgP7yyxi3dVCvfNi4D6yAAAQhAAALRBEb96vAb/hZIq0U72FD7N8nv+ZJnpCI1i0DISFyIRu2LzaKHtxCAQBECIf3OqDMAb1QEHPyLVOOSbVbXxwHFN2dLCEAAAhCAQLUEhv3qeIBMLpB8VzupOAFPDzxfurl4EWwZQCBkJK44h+2LAeFjEgIQCCAQ0u8MOwPwWgXPwX/6FuDLKK+avhhKgAAEIAABCJRPYNivjj/KDO+7L4f1OSrm4eUURSk1EQgZiSu2YftiTSFjBgIQCCYQ0u8MngHYVhA4+JfXEh6moh5dXnGUBAEIQAACECiHwOAA4GXlFFtqKfeotF9JB0vbS+tLfge55f+97BDpFMl5U0v7p+YQ/kAAAhCAAAT6CSynL1dLPhWRghbJD79lbz0pa3LeD0m3SSnEYB+ulAYHWlpESpRAVLtJFAduQQACNRAI73e2U5BRTgza/YZ88UuIiiZPxnOcNFhu1He/JIjUDAJRbaQZdPASAhCogkBIv9P/y/QpVUSVs0xDeI+0r3Rpzm37sy/Ul72lt0t+VW902i3aAexDAAIQgAAERhE4SStCRiEzdn39/oWjnJti+Yu1rQcBkbF9bwr/2bReAlHtpN4osQYBCKREILTfWV4kbpGinLBdv3ugqvROFRwZm6cGNmNS+gSi2kn6ZPAQAhCoikBov+NH/6IcsF1f86/yOWiXHX1PgB8JJKVPIGo/SJ8MHkIAAlURCOl3evcAbF1VVBnKvV153iIZQFXJZR8o+emAqLRVlGHsQgACEIAABAYJpDAA+IScmuaGv8GYRn2/XCs+PWplDcsjB1k1hIcJCEAAAhBoEoHeACDq16lv/PtojcA+IltRTwUwAKixojEFAQhAAALjCfQGAFuMz1bZ2tNU8jWVlT63YE90dPrcxbUsiWJcS3AYgQAEIACBZhHoDQDWDHL7+AC7JwTYtMk1guxiFgIQgAAEIDCHQG8AsNqcNfUs8BmAulOETce4et2BYg8CEIAABCAwikBvALDqqAwVL7+w4vKHFX/BsIU1LIsaZNUQGiYgAAEIQKBpBHoDgKiD040BwG4IsGmTUYyDwsUsBCAAAQikTOD+M871BgIp+9p032Dc9Brstv9+W+iO0p7SDtIW0jyJGS4FgZQMgbvkyfXSRdKpku/58mVfP3FGGiDQm33Pv4ojblJbX3brfArA4dvmVf6n5mTG7jBJaROockKqcZH39sVxeSLWrSyjb5I8Wde6EQ5gEwJTEvAx5kjpP6TIyeDGhRHS7/R+lUZB8a+IutOD6jY4Y29RkF3MQqAoAb+V86/SByQO/kUpsl00gfXkwAel86R9op1JyX5vAOAXAUUkn1KsO/n0ZUSKYhwRKzabTcBnIw6TjpU2kkgQaAOBTRTE16UjpN6xrw1xFY6hB+GKwiVMt+Hzptu80NZ7Fdpq+o08FTEJAqkTcJ/gA/+7pVQvS6TOEP/SJeA2faj0Val3/EvX24o96wFYULGdUcVvrxU+PVNX2kCGnlCXsQE7lwx85ysEUiTwfjnlU/8kCLSZwH4K7vA2B5gltt4AYGGWzBXk8Z3FB1dQ7qgiD9GKXsyj8lS1nAFAVWQptywCPvC/vazCKAcCiRN4h/zbO3EfK3WvdzA8v1Ir4ws/UKs3HZ+llLXzVcobSimpWCG+mYoEgVQJ+G5/vyyLBIGuEPDlgE9Iq3Ql4ME4ewOAswZX1Ph9Jdn6uOTKqCq5bNtYsSoDGco9M0MeskAgisBBMuybpEgQ6BIB3+R6QJcCHharBwI3SX4WMUr/b5hjJS07LDAu87xR6g229C8pYQJR7T8SiS/F+VnpqNixC/vINnCV2r73gcgUEn/voHSvIv9dZPSyfbj0ogp8eInKfFcF5eYp0mdYzJgEgRQJ7CSneM4/xZrBpzoIrC8jviG9c6k3AHDgPwmO3qfpvyKV9Yymy/PjHkdLVV5eUPET048n5iADBOII7BlnGssQSIJAJ/eB/gHASQlUQ++g/U35Ms2NgZtp+29LZQ0mpkXzg2kLYHsIVEgganKsCkOiaAjkItDJfaD/l7EHA54QyKdDUki3y4lPSb4z+eqMDvk5fz9W6Js6Im/463fX15c2lHyNh5Q+gah66t8X66bk6/9cAqibOvZSIuBjjI8fUSmk3xnsdP5T0b8uisAIu752frp0guS3O10oXS/Z9zUlz+2/o+RTOE+U+s9q6Gt4+rQ86PxdpuG1kN2BkB1R7g3ui9k9nj7nHSpihemLoQQINJaA94GVAr0P6XcGOx0fQH2wJZVH4HEq6szyiqOkigmE7IiKaXBfrDjMWcUzAJiFgy8dJNDJAcDgr+UzVPHndrDyqwr5HBXMwb8qupRbFgE/pkqCQJcJ3NDF4AcHAGbw+S6CqCjmz1VULsVCoEwCvqxGgkCXCVzQxeCHDQB80OrkaKjkBnCdyvtCyWVSHASqIOB7a0gQ6DKBTu4DwwYAN6sVfKbLLaGk2P0Ewy0llUUxEKiSgG+wJUGgywQ6uQ+MuvHIjwL6lMiqXW4RU8TuQdSW0t+mKINNYwh08SZAT4PqR4DrfDV3TO1iFQJzCfgRQD+qHTlba0i/M+wMgPEYyIf9D6kQgQ9oKw7+hdCxUQCBe2TzyAC7mIRACgR8rIs8+IcxGHUGwA6tLJ0n8YYw08ieLlPWraVF2TchZ0IEQkbiin/cvlgHHj8D7f190zqMYQMCiRBwf72VdFuwPyH9zqgzAGZhIG8PhtJE82+V0xz8m1hz3fb5doXvthvSEXUbPdEHEXBbf6MUffAPCj+b2eOUzaDQZAadvJEkWzNqTK6odp4KoPezr9PXdaQNHJ7KThfFO8tpxwfKubOltRKClaIrf5dTD5c89z+puQQ8AIhIWfbFOvzyWcGvSvvVYQwbEAgicKzs+lXxqVz7D+l3xl0C6NXLlfrntVKIgz0nEv80GzPi4J94ReHeRALuEF8kvUdin5+IiwwNI+A2/UEppYN/IxD6LmHDQ3MZuEGR2kEgqn2nSG9vObVQimKCXdiX2QYuUVveK8UdLXAfy4zj/sr5i0BHy2wIZZb1MzExG1I7CJTZNvKUlSo9Px1wiOSzW3niIS+8UmkDbrt+TbzbcqophFXe645ri96vpIekSrFmv/4seztLnvaX1A4C3hEjUt59sW4ffblwB8mv3fanJ7qaJ/EaYUEgJUPgTnni18X7/Rae3tc3Zp8upXKtX64MTSH9TpFOZ2O5b7CbDg2jOwsvV6g7Spd0J+RORBqyI4pskX2xExVCkBDoAIGQfifLTYCD7D1xwrOkqwdXdOi7Tyk9VeLg36FKJ1QIQAACEFhCYGt9dPEGIR/0H0wjaC0Bj8Qj1FqgBAYBCEwkENHnTH3WYb7C+qsU5XzddpkqdWI7bnyGuttUz17jwREABCBQmECvH6j7s7DDvQ09QdCPpbodr9veDxWjb3oitZtA3e2qZ6/dVIkOAhAYR6DXD9T9Oc6nzOv8GNzHpbqdr8veRxWbX5lKaj+ButrUoJ32kyVCCEBgFIHB/qCu76P8KbT8mdrK7xWvy/mq7VyjWJ5XiAQbNZVA1W1qVPlN5YXfEIDA9ARG9QtVL5/e84ESNtD370pVO151+X5+dP2B2PjafgJVt6tR5befLBFCAAKjCIzqF6pePsqfqZfvoRIukqoOoOzyL5XP+08dPQU0lUDZ7SlreU3lhd8QgMD0BLL2E2Xnm97zMSWsrHXvlm6Uyna87PLs47sk+0zqLoGy21XW8rpLnMghAIGs/UTZ+Wohv7qsHCp5ytyyA5i2vJvk0xESrzsWBFJY+wQ9BCDQTQIrKuxpj2NFtr+7btweCLxB+kNQwP2Q7MPrJftEgkCPQH8bqfP/nn0+IQCBbhFYR+HW2df0bN0aiXn7oKAd/BMjA8d20gR6O0fdn0lDwTkIQKAyApur5Lr7G9u7LvoFJHYiIkXHHREzNrMRoE1m40QuCECgHAKPVjG/K6eoXKVcXuRlQLkskBkCEIAABCAAgZEEHjRyTbUr/u4Z/EgQiCawnhzYSPKrpjeRNpS8bE1pXp9W1f/LS06rSL55hgQBCECgyQS2CnKeAUAQ+C6a9VTKfoPkw2c+HzLz6cbvAzsJAhCAQBcJuF+MSNdyBiACezds+sDuGz23lR4r+TrXAyQSBCAAAQgsJbDd0n9r/W8hA4Baebfa2EMV3S7Sk2Y+H9jqaAkOAhCAwPQEPHW+z4ZGpIsZAERgb4dN/5p/ivSsGfnaPQkCEIAABLIT2E1Zo55KYwCQvZ7IKQK+Ic9vR9xX2lVaSSJBAAIQgEAxAk8vtlkpW/0lauTR855nrnsk0v1cTa71DvpP0/8rpOtqoz2L3hcbDQ/nIdBAAn6S6SrJfWzd6WYZXINLAHVjb44937z3GunFEnfpN6fe8BQCEGgGgb3kZsTB33T+JP2DAYBRkHoE/EKkV84o6tGUni98QgACEGgzgZcHBneWbTMACKyBhEw/WL4cIPngz6N6CVUMrkAAAq0k4Meidw+M7JRA2/eZ9j0AEbrPgY7/47v4fyjdK0XUAzaXcu94UyR8CHSKwDcVbWT/51lXw1MUgPDAgx3wo3unSVH8sTuXfXCTwDwEIFATgYfLzj1SVD/4116cXALokejG53MV5rsk3+BHggAEIACBegn4aZ9PSpEv4vtBvSGPthY1AhrtUTvXPEFhnSxF8cbuZPbtbHlEBQEI9BN4ib5E94c+A5xEigKRRPA1OLGNbHxbiuKM3ezsa2gOmIAABAIJ+CmrK6TIfvEW2ff8A4sTlwB6JNr16Tv5D5H+VVqhXaERDQQgAIHGEfCp/y9I0e9IOVE+LEqFXtRIKJX4y/bDjewF0kIpii12i7Evuy1QHgQgkA4B/yBLoW/0rK7JpCggyQAo0RG/UcrPdkYxxe507EtsChQFAQgkRGB3+XKnFN1HXicfZr2/JfJOxITqp9Gu+DLOodJvpR0bHQnOQwACEGgXAT9xdZy0fAJhfVk+3J6AH/e5EDUius+Bhv/zKPnvA38UR+yWx77hTRH3IQCBAQJb6fvVUir9pI8XSaUoMElBKOCMz9z4V38Kp5Wi6rBtdgs0AzaBAAQSJeBf/ikd/E9NkVNUJ54ii6w+baCMnsghih12q2Gftf7JBwEIpE1gN7l3o5RSX+k3DyaXogAlByKjQ3sr39+lKG7YrY59xiZANghAIFECfgrrYCm1M7Pny6ck7/eLOqAk2n5GuuUb/Y6Uonhht3r2IyufFRCAQPIEPMmPn7FPsa/0W16TTFGwkoQxwql1tfwnUhQr7NbDfkT1sxgCEEicwB7yb6GUYl/pF//4B2SSKQpYkjCGOLWDll0uRXHCbn3sh1Q/iyAAgYQJ+K1+P5NS7idfmjC/MHApM+n5tp/+8ZSNKTcufCuvfnr1zicEIJA2gUfKvaOlu6WU+0A/Ip7ktX/5tThFwevZT/HTN5K8V7pXiuKD3frZp9gW8QkCEFhCwC/Q8Zv8fiQ1oW+2jztLY1Oy1wbGet3elSsrtKOkfdsbIpFBAAIQaAQBP3K9m/R0yY/RrSY1JX1Njv5qkrP+tRmZ/EszIkXHPSzmNbTwO9KThq1kWesJpNgmWw+dADtNwG9KXVVaU3L/u4W09Yy20+dDpSam6+X0w6QrJznPGYBJhOpZv77MnCQ9ph5zyVq5Vp4tkC6e+VyoT897YP1N8uQabtxOftb21sX/lfsnalBabhTllraiinuK9EzJbdRTnK4ueTkJAhBIi8Db5M7Eg79djv7VEdXZRsfd31w21xdfV3pQ/8KW/3+P4jtHOlP6o/Qn6Q+SD/TRiTa5tAbW1r9vlP5FWm/pYv6DAAQSJfBj+fV0KVM/Fn0gzORkBaCj4+6F5IP+z6WNewta+um7ZT0X9S+k06TTpZukFFPX26TrxAf+t0gHSqtJJAhAIH0CPoP6KOmKrK5yCSArqfLzPVhF/kxq68Hfp6C+J/m9BT+RfPqelDYBDvxp1w/eQWAUAf9weZWU+eDvghgAmEL9yQd///LfqH7TlVr0KfzvS9+QfE+Df/mT0iewllz0qf43Sb4higQBCDSLwJFy94S8LkefCu/i6dbNVUl+PKMtB/+7FMt3pP+W/Evf1/ebnLrUJvnF3+SWiu8QWELgZH08Vcr9g4sBwBKAdf313f6nSA+qy2CFdi5W2Z+VjpL83uu2pC4MADjwt6W1EkfXCVwkANtL1xQBwSWAItSKbePHpnx6vOkH/98qhk9IX5Vyjzi1DSmOAKf649hjGQJlE/Cj0c+SCh387QwDAFOoPnmGvxOlx1ZvqjILP1bJnqJ44uxSlXlAwUUJ8Iu/KDm2g0CaBG6WW56X47w03cvmlU+3Riibd+Xk8mWWrwTFWQbbU+W7p8PsSiqDWZEyquDrX/yHSZ48qYhPbAM32kB6bcCToPlZ/8anqMZVJ7j3y1hUnNPYPVt+t6KR5azsaZhNs21ON8dm9y9+t7ubpGl8Ylv40QbSagO+yXo/qRUpqnHVBe/lMhQVY1G718nnQ6UV6oKUmJ2i3KbdrgwM/OJv3v42bbth++7U+R3qJF5YRkeRShlRjbeO+HeSEVdYVIx57fr1kZ+TfBDpcsrLraz80zD3L/73Sfzib87+Vla7oZxu1Ln37d2n6SSGbctjgMOoTL/Mj/v5bvkNpy+qlhL8KMlrJT/H3/XkDjUiFdkXPVh7o8QEPhE1hk0I1EPAj1k/WzqrbHM8BVA20WWWWV5Feia8Jhz8/avfM0i9W7pNIjWDgH/xv1nywX+1ZriMlxCAQAEC/nHme7EuKLDtxE0YAExElDvDB7XFzrm3qn+DS2Vyf+nk+k1jsSABDvwFwbEZBBpI4GT57Bv+Cj/nn3rMUdevquLyfBXsX9VRcWW1+zX5OK8qCA0vNyvDsvONw8Y1/vT3qbLbA+V1t859DPmI1Pof6FGNfFxnW3Tdxtrw71JUTFns+vnRA4sG2JHtsnCsIs8wvBz4096fqmgHlNntOvfsfnsO6wyqWNb6EUYV0IaUeT8tO1ryTVmppivl2L7SKak6iF/3EeBU/30o+AcCnSHg2VZfIeV6pW+T6USNdstm9nYVGBVLFru/ln8PLDvolpaXhWcVeYyTX/xp70dV1DtlUueee+VVUpEngdxvNDZFNf4ygT1ahfnUelQsk+weJ99WKTPglpc1iWdV698nrn7Wt6ryKRe2tIG02oCv9R8jbSCFpOgRhxtkRCorbl9COUPaNiKIDDY/qTx+XMwNjZSNQFSbzOYduSAAgTYQ+J2COEj6ZWQwvnZNKk7gYG2a4sHfB7G3SZ4ghoO/IJAgAAEIJEDAz/PvL20nhR78zaKsX8Iuq0iK+rVVRtxbK+DfSysVCbzCbcz0AOk/K7TR5qKj2mSbmRIbBLpO4K8C4DliviTdnQoMn8Im5SfgAcRnpdQO/n5TlG8mOUoiQQACEIBALIHTZN6zrR4vJXc2lgFAscbxYm22S7FNK9vKv1z/RTqqMgsUDAEIQAACkwjcqAyebO2/JF/rTzaVcSp8muCiTrdOE7fnXj9PSumxOnPktP80LXHptlFtcqkH/AcBCDSNwK1y+LuSD/wnSbdLySfOAOSvosO0SUoHf0dwqMQ1f5MgQQACEKiHgG/o+8GMfq7PRfWYLc/KNL+Ey/Ai6tdW0bi3UdB/lPzGv1TSx+TIW1JxpgV+RLXJFqAjBAi0lsDNiuxs6UzpVOkU6XKp0YkzAPmq79+VPaWD/7fljx9FJEEAAhCAQH4CPrD7rny/Dt3vcrH89j2/LfXiGZ0788mPA4EoMxlohIrEsL028l2cEf4Os+npfZnhr0hNjt9mGGuWjW73nr3wfdLa47GytqUE/CTUGVJK+8iTW8q6dWFFNZoiIH+eUCO/Sr5sVCQItplIIKpNNs2ufzl9Qlp/IlEytJ3ABgrwMimVNuzT86QGEIhqMHnRPEcbRPk6aNfvHdgpbwDkz0xgkDffZ7d9fvFnbkqdyvhERXu7lMr+smun6Dc02KjGkhfXb7RBlK+Ddv24H6k6AoO8+b6k7fOLv7o215aS3Telsr9wFqABrSqqseRB84yEGrWfMSVVSyCqTaZql1/81ba3tpX+LQWUSlvetW1w2xZPVEPJw9EjySg/++0ulB/z8jhO3kIE+pl3+f/egX+tQhTZqKsE1lTgF0sp7Ds/72olNCXuqEaSlc9uiTRkz/G/a1anyTcVgag2mYpdDvxTNR82FoGdJfdZKbTpXaiRdAlENZCsRL6fSCP+UFaHyTc1gag2GW2XA//UTYcC+gh8VP9Ht2nb/0GfT/ybGIGoBpIFw1bKlMIo9nz5sXIWh8lTCoGoNhlll5v7Smk2FDJAYEV998x5Ue26Z9dzt7gvJyVIoFdJdX9mQeG59ev2a9CeG++uWZwlT2kEBuugrd/5xV9ak6GgEQR8KSCFydOOHOEfi4MJRHWuk8L2zXa3SFH+9ex+bpKjrC+dQI99Wz858JfeZChwDIEvaF30vuTpfTmLOqaSolZFNYxJ8b5FGaJ869l1o11rkqOsL51Aj3/bPjnwl95UKDADgXWU51open/65wy+kqVmAlGNYlKYf1aGKN96dpnwZ1ItVbO+x78tnxz4q2knlJqdwOuUNXp/OjO7u+Ssi0BUoxgX345aGeVXz+458uH+45xkXWUEenXQ9E9u7qusiVBwTgLLKX8KNwQ+IaffZK+YQFQnOy6s/9HKKL96dp8+zkHWVUqgVwdN/eQXf6XNg8ILEthD20XvU18s6DubVUQgqkGMCmc1rfAvpyi/bPcXo5xjeS0E/F7wyPovapsDfy3NAyNTEDhZ2xZt32Vsd6Ps+/XFpEQIlFGpRcoYFf7+WlGkvDK32XWUcyyvhcCVslJmfVZdFqf6a2kWGCmBwK4qo+r9YVL5e5YQB0WURGBSZVW1fpT7J2pFVTazlPujUY6xvDYCpwW3gSztxHn4xV9bk8BQiQROVllZ23gV+b5cYiwUNSWBKio4S5nD3PZLLKLfZ+2JM0ixBP5D5rO0oag8HPhj2wfWpyPw5OD9i8sA09VfqVtHdaLDgvin4Ib5m2FOsax2AincrDRsv+BUf+1NAYMVEThD5Q5r43Ute15FcVFsTgJ1VfignWFuflcLB/PV+X3fYU6xrHYCK8iiJ2Gqs+7H2eIXf+1NAIMVE3hh8P711Yrjo/iMBMZ1fFWuG3RvFS1YJFVpc1zZF8s2z/0P1krc9/cEtoVeO+HAH1f/WK6WgPu6hVKvrdf96X2LqYGrreNMpddd8T17g849Rwt66yI+Dx10iO+hBPwuiL9JEW2BA39o1WO8JgL/GrR/9fbpZ9cUJ2bGEOhVRt2fgy5FvvnvLjnzwEGH+B5OYD95UGe75Bp/eJXjQI0ENpCtO6U697F+Wx+tMVZMjSDQXyF1/j/ozgItqNN+v61vDjrD92QIfLqGduG7kt8nrZVM1DgCgXoIfFtm+vvCOv//Qz0hYmUcgTorvN9Wv0/b6Ev/urr/Z9rf/tpI63/PYf6NitoHB/606hpv6ifg0/B197c9e/fK9rr1h4zFfgK9yqj7s9+H1+hL3fZ79q6SbR9kSOkScP2UOTcAB/506xrP6iWwvMxF3WvjPpgnr+qt7znWegfCuj/7HfHMUHXb79nzKWZSMwjsJTc9YOvVXd5PDvzNqGe8rJfAZ6fYp/Lug4P5bZsUSGCwQur63h9y5OMou/Q7wv/JE1hVHr5TukLK2lYvV953SVzjFwQSBAYIRM4M+NcBXzr3ddngiN2JRqRe3FvI+IURDsimXzqzseRrUaRmEfBzzE+Tnir5HeObS76r2elq6SLp15Lf7fATyU96kCAAgbkEfInNfWHU9fj5sn2J1MnUOxBGBR81AIiKt9/u5/Xl1f0L+B8CEIBABwl8STHv34K4/VjjrdL10i0zukCf583ofH2eK/GDQBCcsp5GbWO+5y9BwF8IQAACnSbgm/Ha2McPi8kDhB9LnvxtJ8k3QnYubaeIPykNA9SFZR4prtG5WidgCEAAAnMJ+E2s/lXchb5/MEZfMvyY9Bip1ck3UB0knSMNQuja91+0uqYJDgIQgEA+Aqcre9eOA4Px/kkM3iz5WNma5Js73iul9Ia1QfB1fz+8NbVLIBCAAASmJ3CEiqi7H07Vno+VfnJo3vRY40rw25b+TfIc56mCjvKL2f/i2iWWIQCB9Ag8Uy5F9cep2vXcIf6x6LfVNiq9SN5GPl+faoXar7slrv83qjnjLAQgUDGB1VX+PVLKfXeUbxeLy3Mr5l9K8X4W+gQpClQT7P6+FNIUAgEIQKBdBP6icJrQh0f5+B3x2aTMKr9fiYXto7LOlhoxUikx7rxFnZV3A/JDAAIQ6ACBMzsQ4zQh7qGNfyf5JUqlpDIGAJ4VzTdwfF1auxSv2l3IH9sdHtFBAAIQKESAH0eTsfkYe6L0CWmFydmrzeE7/E+Wok6JNNHubtVWCaVDAAIQaCSBJ8vrJvbpUT7/UrzCnhTYTMY9rWFU8E21u46YkSAAAQhAYDaBDfW1qf16lN+eV6fU+wJmV8nwbw/V4kulqKCbatfvviZBAAIQgMBwAn70ran9e5Tfl4jZNsNxjl9a5B6Ah6hIz2S38fiiWTuEwIIhy1gEAQhAAAJLCPjFOaR8BDZV9l9JuQcBeQcAPtVwksRpbEEokC4usA2bQAACEOgKgQVdCbTkOH1M9kuGPBjInPIMAHzD30+lzTKXTsZBAgsGF/AdAhCAAATuI3DZff/xT14CPiv/fWmtrBtmHQD4Ub+vSQ/OWjD5hhLwfRMkCEAAAhAYToA+cjiXrEsfpozHS5leM5x1APAhFehHNEjTEbh2us3ZGgIQgECrCVze6ujqCW5nmXl/FlNZBgAvUEFvzlIYeSYSYAAwEREZIACBDhO4rsOxlxn6wSps4oyBkwYAD1QhnynTq46X5dc8kiAAAQhAYDiBG4YvZmlOAssq/1HS2Kf1Jg0A/lsFML2vIJSUGACUBJJiIACBVhK4vpVRxQTlJwM+Pc70uAHAS7ThxFMI4wpn3RwCt81ZwgIIQAACEOgRuKn3D5+lEPDL+fwSoaHJpwmGpZW10NP85nqmcFhBLJtFYE1980xXJAhAAAIQmEvAfSRnAeZymWbJQm3s2XtvHSxk1BmAQ5WRg/8grem/3zV9EZQAAQhAoLUE7mhtZHGB+Vj+tmHmh50BWE8ZPWPdKsM2YNlUBDyfwj1TlcDGEIAABNpLYDmFdnd7wwuLzJdWPInfrJssh50BOEiZOPhXU08c/KvhSqkQgEA7CNBHVlOPq6vYAweLHjwD4EyXSL4OQyqfwCDv8i1QIgQgAIFmE/hHs91P1nvPsTBfurnn4eAZgNdoBQf/Hh0+IQABCEAAAu0g4HcEvKo/lMFfpH/WSr/ul1QNgUHe1VihVAhAAALNJcAZgOrq7hwV/fBe8f1nAJ6ohRz8e2T4hAAEIAABCLSLgF8W9OheSL4rvZde0fsnoU/fEHKadIJ0qnSR5GdEp32cjhGmILYg+Y7hHaU9pR2kLaR5kpPbiduL243bj9sRNxgJAmkiAdrVREStzDDtGdrlRcX9j/uhnST3S9tLbk8ppf3lzO/7HXLgV0o+MKagRfLjg5IfSawiRcVYRSxdLNMTVb1dukbKWpdXK+/bJG9LgsAwArSrYVTqX5Z1ny47XxWR+hj2IcmzwJbtb9HyfKzvP/u/zHYJOfcN+bKJVGUqCm7a7aqMqStl76tAL5OK1sVCbbtPV2ARZ2YCtKvMqCrPWHTfnna7KgPzZDzHSdP6WNb2j+kP9l0JOHavfDhMmvY0jIqYmMqCmLeciY6RYSQBt4vDJLeTvNwH87uMI6RZo2B9J3WPAO0qvTof3F/r+l41Cbc1z7LrS5F1xTTKzlv7gz052CEDeWG/QxX/PwpK1csrDqu1xftA/TWp7Po5VmUyCGhts5kYGO1qIqKQDGXv51nLqyvYF8tQGT9kssY1LN/3esF6J/A0gcMy1bXsHT1navqsK65BOzWF1zozH1BEgyzL+v6+1tEioKwEaFdZSdWbr6x9O285dUb5ThnL61+Z+X3M902Li98SVGbBecvyNf86Tvs71l7K62NZ+Xv2+cxOwNdmy+I/rByPxPfO7g45W0KAdpVuRQ7bT+tYVicRH/Oi7wnwI4HLvEyqA+4wG4tkexM7UXMa5ksdy2oOs/HmfFf2QqnquvFNhbz/ovHNJXMAtKvMqEIyVr2/jyq/7mA3lcHIpwP28un/B9cddZ+9T+r/S/u+8y8E+gkcpC91DBA3kp0D+g3zf6sJ0K5aXb2NCc4/bj4V6O3Wtv0ladSIqMrlfuXjenYgIFUZ17iyA0JtrElPnpHnOf9x3LOsu0r2Upuwo7GVl7DjtKuEK2fGtSz7axV5IsisL6P3SFXEM6nML/oMwGYRUcumZ2ZzB0+CwDACnklr3WErKlrmHdGzdpHaTYB21e76bVp0V8vh04Oc3sIDgA2DjHt6VhIERhHwNJp1pwibdcfYdXsRdRxhs+v13KT4o46Fa3oAsGoQKc/RToLAKAKe27/uFGGz7hi7bi+ijiNsdr2emxS/z4ZHpNU8AIi6+/nCiIix2RgCWwR4umWATUzWS4B2VS9vrE0mcMHkLJXkWM3PIt4pLZ4QoBITowtdccb26BzVrfHNERGp7vkOImIsy+YdKmiFsgrLWI5trpQxL9maSYB2lX69da1/9rHw9oBqucMHpK7BNucuxhzQvqYySR1NhY+NRxCgXY0Ak9DiLtZRSMy+BECCAAQgAAEIQKBjBBgAdKzCCRcCEIAABCBgAgwAaAcQgAAEIACBDhJgANDBSidkCEAAAhCAAAMA2gAEIAABCECggwQYAHSw0gkZAhCAAAQgwACANgABCEAAAhDoIAEGAB2sdEKGAAQgAAEIMACgDUAAAhCAAAQ6SIABQAcrnZAhAAEIQAACDABoAxCAAAQgAIEOEmAA0MFKJ2QIQAACEIAAAwDaAAQgAAEIQKCDBBgAdLDSCRkCEIAABCDAAIA2AAEIQAACEOggAQYAHax0QoYABCAAAQgwAKANQAACEIAABDpIgAFAByudkCEAAQhAAAIMAGgDEIAABCAAgQ4SYADQwUonZAhAAAIQgAADANoABCAAAQhAoIMEGAB0sNIJGQIQgAAEIMAAgDYAAQhAAAIQ6CABBgAdrHRChgAEIAABCDAAoA1AAAIQgAAEOkiAAUAHK52QIQABCEAAAgwAaAMQgAAEIACBDhJgANDBSidkCEAAAhCAAAMA2gAEIAABCECggwQYAHSw0hsS8p0Bft4RYBOT9RKgXdXLG2sJE2AAkHDldNy1GwPivyHAJibrJUC7qpc31hImwAAg4crpuGsXBsR/QYBNTNZLgHZVL2+sJUyAAUDCldNx104NiD/CZkCYnTYZUccRNjtdyQSfjQADgGycyFU/gRPqN7lMhM2AMDttMqKOI2x2upIJPhuBZZXtH9mylp7LtqNSF2OOYl3U7nLa8AppvaIF5NzuauXfULo353ZkbxYB2lX69dXF/jkkZs4ApL8zdNXDexT4kTUG/2HZ4uBfI/AgU7SrIPCYTY8AZwDqrZPIsx71RlqOtZVUzHnSpuUUN7KUy7RmK+m2kTlY0SYCtKu0azPk17CQRPbPITFzBiDtHaHr3t0uAG+Vqtw5XPYbJQ7+gtCRRLvqSEUT5mQC7gAjNNmz6nJExGubpGIE3q/Nqqqzw4u5xFYtIEC7SrMSq9rXJ5UbSWOSb1Wtr6xjneRwJ2FHBt1g2z5Tdaw0qU3lXX+MyuQsWIMbxpSu066mBFjR5nn347LyVxROpmLLiiFvOaV3qlkdyESlokxZfSw7X0XhdKJYX587TPKNetPWi8s4QuLgLwgdT7Sr9BrAtPt30e0jSRT1edrtpu5MizrQSdiRQbfE9t6KY6FUtN1dom33agkLwiiPAO2qPJbTllR03552u2n9nmb7aX0vun3hjrSowd5208CadtueD3V/Tus32y8h4Lu4D5GukrLWofMeLHlbEgSGEaBdDaNS/7Ks+3TZ+eqPdKnFsmPJVJ5PfzljRLLtqNTFmKNYV2nXp/B3kPac+dxSn/Mkp+slz/vuaVg9E9vpEs/5CwJpIgHa1URElWboYv8cEjMDgErb8ZzCIwc9c5xhAQQgAIEECYQcDMUhsn8OiZmboBJs/bgEAQhAAAIQqJoAA4CqCVM+BCAAAQhAIEECDAASrBRcggAEIAABCFRNgAFA1YQpHwIQgAAEIJAgAQYACVYKLkEAAhCAAASqJsAAoGrClA8BCEAAAhBIkAADgAQrBZcgAAEIQAACVRNgAFA1YcqHAAQgAAEIJEiAAUCClYJLEIAABCAAgaoJMAComjDlQwACEIAABBIkwAAgwUrBJQhAAAIQgEDVBBgAVE2Y8iEAAQhAAAIJEmAAkGCl4BIEIAABCECgagIMAKomTPkQgAAEIACBBAl4AHBnkF8rBNnFLAQgAAEIQCAVAisGOXKHBwA3BxlfM8guZiEAAQhAAAKpEIg6Ft7sAcAtQRS2CLKLWQhAAAIQgEAqBB4U5MjiAUDUGYCdgoLGLAQgAAEIQCAVAlHHwpt8BuCGIAp7BtnFLAQgAAEIQCAVAs8NcuRGDwAuCjK+veyuF2QbsxCAAAQgAIFoAhvIgScGOXGRBwDnBxlfTnYPDrKNWQhAAAIQgEA0gUPkgI/DEek8Gz4vwvKMzQP1uWmgfUxDAAIQgAAEIgjMl9E3RBiesbl4AHBuoAMryfbHpWUDfcA0BCAAAQhAoE4CPub52Bc1B4BjXfzjf3n94ycB/hGod8p2nSkq1jpjxBYEIACBJhLoQv/8blVMVJy2e5PkY//idJL+Rjpzr+y/aIkrtfyNirWW4DACAQhAoMEE2t4/v0R142NeVJy2+z23j97NBz/3l8Dk0yFfkY6Qej4FuoNpCEAAAhCAQKkEfJw7VDpair7s/bP+yLbVl8jRSL/t4+RL1TcG9tur8/9+5vwPAQhAAAJzCdTZJ/fbmutJeUs2U1HHS/32Iv9/TH9ofiTvqoScu02+fFhaX6oiRYGvIhbKhAAEINAmAm3qn/2c/0ek26WouAbtXiFf5pxp/1hCDvYcvkc+nSL5WckdJA8IyniLYK/8uj/lPgkCEIAABMYQqLtf7tkb41KmVb6j38eoHaW3SadKPob1yk/l80j5tDj1X4d4rJacNbOcj2oI9POuxgKlpk7AZ9vcQXgqbA9qt5DmSffdkav/u5DuUpDXSxdJ7ihPkE6T3GGSuk3AB0pSdQQeraL/MKz4P2phKqOUNvoxjDnLukFgZYX5dukaqY1tu4yYrhYb/3IyK1J3CZTRlihjeD9z9rhm9WatBFx1DMaxZ117Ceyr0C6T2LeyMVgoVvu0tzkQ2QQC7CfZ9pMinA4ax/4BWvk3qUjBbDOZ2zj2rGsfAV/yOUyKfua3ifummfFYsCB0MDWxvTbB52vVllbrb0+DdwLeqpWf6s/A/xCAQCEC3reOld4tce9HfoRmdqj0VWmwn8pfGltAAAKeetiz/o5Na2jtDVITRjRN83EseFa2isAH2IdK60Pe16qWQTCTCDStX2+CvzcK+pqD4IeNrJ3xk4MZ+V4KAd8BTmo/AV/z9w1/pHIIvEPF7F1OUZSSOAH6yGoq6KMq1j/sZ6VRpyZ9F+450uazcvNlWgKrqIDbpi2E7ZMm4H3Hb9naJGkvm+fc5XJ5K2lR81zH4xwE3Ef6UjSpPAKXqKiHSnP2nWFnAGzWByk/EUAql0AZkxiV6xGllU3gIBXIwb9sqssss5GKPKD8YikxMQKRr8dNDEVp7ni/mXPwz1L6d5SpCdc3muLjelmgk6exBHz6kuf8q+szPF05p4gbu3tkctxT5zalP2+Cn98eR33UGYDeNm/QP3/vfeFzagJMcDI1wqQL2EnerZu0h812ztOsbt/sEPB+AgH6yAmAcqz2Y38Hjss/aQBwqTbeX/JIhzQ9gbWnL4ISEibg6X1J1RKAcbV8o0tfJ9qBltj3MfuVkicgG5kmDQC84felj4wsgRV5CDAAyEOreXk9tz+pWgIwrpZvdOn0keXUwAdVjC/hj01ZBgAu4N+kX40tiZVZCDC6zUKpuXm2aK7rjfF8y8Z4iqNFCDAAKEJt9ja/0Nd3zl40/FvWAYDf3PU8yY8GkooTYABQnF0TtvQkWqRqCcyZzKRa6EeaFwAAEa9JREFUc5ReMwH6yOmAn63N95LuzlJM1gGAy7pOepq0QCIVI8DjYcW4sRUEINANApt2I8xKovT1/mdL12ctPc8AwGVeIT1T8t2FpPwEmFgpP7MmbeFZNEnVEpgzm1m15ii9ZgLza7bXFnM+Jj9VWpgnoLwDAJd9rrSzlMuQNyQtMx8GrSZwYaujSyO4C9JwAy8qIsCPpPxg/cN8N8nH5lypyADABmxoR4l7Akwje5qfPSs5G0jg1Ab63DSXYdy0Gsvn7/x82Tuf29f8Hy/9qQiJogMA2/L1hidJPB1gGtmSb3BhophsrJqY64QmOt0wn2HcsArL4a4nepqXI3/Xs/pufx+D/Z6MQmmaAYAN+sZAn3p4j3SvRJpM4BGTs5CjoQROk9+eCphUDYGrVewZ1RRNqQkQeFQCPjTBBU/y4zf2+pp/5hv+hgU27QDAZfpxg8Okp0veQUnjCTxy/GrWNpjAPfL9yAb7n7rrH5aD/NBIvZaK+0ffOJmdb/Z7jvQmyY/nJ5U2ljc+RdeElyRE+fiFpGoMZ8omsJIKvESKal9ttXupmK5cdmVRXlIEjpI3bW2/ZcR1vPj4GJt82kMeXiSVEXTbyvhD8rWHg9MS2EcF+Jdq29puVDxmude0lcL2yRPwjWxRbSxlu366yL/6G5U8Wj9MulFKGW7dvvk08RoSqd0E3q/w6m5bbbV3eLubCtGJwDzJfWNb23CRuDznxbulRp/5Wk0B+HrFlVIRCG3cxvdLkNpNwPfXHCu1sf3WGdMxYljGvUrtbm3Nj86/cOtsVynb8nX+wyQPilqTVlUkb5b+KKUMvw7f+EXTmmY9NpBltfYwicsB+fd5MztC4uAvCB1I/64Y6+h7U7bhY+NBko+VrU6PVnQflbp6VuCXra5dghsksLcWLJRS7nxS8s03Ue41CJHvrSbgR2hTaoN1+eJZ/Pzk0KNaXbtjgttC614jfV26XqoLfKQdP76xpkTqDgE/HXCIdJUU2fZStm02B0tmReoOAZ/q9uPkKbfNsny7RXH+WDpU2lYKPcPlU5QppfvLma1ntNXM54P16VMivpfAB03/v4LU9PQCBfDNpgeB/7kJeIffQdpz5tPvt3cH2IY2rTAypzuV0wN+3+F8qnSCdLrkU/+kbhHYT+Ee24KQ3aZ9gL9BunlGf9Xn+TM6T5+WBzukBAi8RD6UNbLLW87nE4gfFyAAAQhEEzhKDuTtP8vK/+Lo4LEfR2DTwIZ3hWyHnv6Jw45lCEAAAosJLKe/nkG2rAN63nI2oR66TWBhYOPbtdvoiR4CEOg4gd0Vf96Ddln5F3ScPb9A1QBOCWwE+wbaxjQEIACBaAK+/h+VOv8mW05Bx77O2I+H+cZHEgQgAIGuEVheAUc+7tn5AUDXGtyweP2UQVmnlIqU88xhTrEMAhCAQMsJPEfxFekzy9pmi5bzJbyMBC4IbIjfyugj2SAAAQi0iYAf/SzrYJ63HD+OR4LAYgKf0t+8Dais/J4U6IHUAwQgAIEOEdhAsfq5+bL60bzlfLxDrEeGyj0AS9D8cCSh6lf4HoD9qzeDBQhAAALJEHilPPE9AFEpss+Pihm7Iwg8QMtvk/KOIsvKf7FsczPgiMphMQQg0CoCPvD7fQ9l9Z95y1kk26u0imjBYDgDsATcrfqIHBHOl/19lrjCXwhAAAKtJuBH/zwJW1T6vgx7EECCwH0EXqb/8o4ky8x/5n2e8A8EIACB9hL4rUIrs+/MW9YL24uWyIoSWEMb3i7lbUxl5t+lqPNsBwEIQKABBHaXj2X2mXnL8qVev1iOBIE5BE7UkrwNqsz8P53jEQsgAAEItIfAyQqlzD4zb1nHtQclkZRN4KXBjdON+cllB0V5EIAABBIg8DT5kPeAXXb+yKmHE6gCXBhHYGWt9DvKy250eco7ZZyDrIMABCDQUAKny+88fWHZeW+QfffxJAiMJPA5rSm74eUtj+mBR1YPKyAAgQYSeK58ztsPlp3/Mw3khss1E9ghgYb6Z/kQOUlGzcgxBwEItJjACortPKnsA3re8h7fYsaEViKBcxNorG8sMR6KggAEIBBF4K0ynPdgXXb+c6KCx27zCByUQIO9Tj6s0zx0eAwBCEDgPgLr6T9fey/7gJ63vAPu84h/IDCBgOcEuFnK28jKzv8/E/xkNQQgAIGUCRwt58ruF/OWd6N84Nn/lFtJgr59OoGGe6988MQZJAhAAAJNI7CbHHYflveAXXZ+3vzXtJaTgL8PSaTxXiQ//LIiEgQgAIGmEPDLdi6Qyj6Y5y3PA5CtmwINP9MicJLcydvgqsj/kbSw4A0EIACBsQQ+prVV9IV5y/zOWC9ZCYExBJ6kdXkbXBX575EfTxnjJ6sgAAEIpELgqXLEfVYVfWHeMndMBQp+NJPALxNpyJfJj7WbiRCvIQCBjhDwk0tXSHkP1FXk590qHWl0VYb5jEQas3eQb1YZKGVDAAIQmILAstr2eKmKg3mRMrmBeorKZNOlBM5MqFG/aalb/AcBCEAgGQIHy5MiB+oqtjkjGSo40ngCKZ0FuEs0d2k8UQKAAATaRMBvMXXfVMXBvEiZ3DPVptaVQCy+nlSkIVaxzVXyZeMEmOACBCAAgU2E4Gqpir6uSJk/okogUDaBx6nAFCa16O0QvizB/ABl1zLlQQACeQj4ef9fS71+KfrTffQT8gRAXghkJXCcMkY38H77vuFmuazOkw8CEIBAiQTc95wo9fdJ0f9/vcT4KAoCswhsqW+3S9GNvN/+f83ykC8QgAAE6iHwSZnp74ui/3ff/OB6QsdKVwkcocCjG/qg/UO7WhnEDQEIhBB4h6wO9kPR398XQgKjnSKwqqK9XIpu7IP239KpWiBYCEAgisABMjzY/0R/90Rp3BMV1SI6ZvelCe4Avvnl1R2rB8KFAATqJfBymUtlmt/+QceL6sWAtS4T8IxXP5P6G2AK/98tn/6pyxVD7BCAQGUE/lklu49Joa/r98GPaLtPJkGgNgKby9ItUn9DTOF/nwk4qDYKGIIABLpA4HUKMsVf/rfKL9+cTYJA7QQOkcUUDvrDfODGwNqbAwYh0EoCKd7w1+vz3tpK4gTVCAJ+Dvb/pF5jTO3zs/Lt/o0giZMQgEBqBNy/pfaoX38f6wmI7CMJAmEEHiHLt0n9DTOl/0+Qb9wdG9Y8MAyBRhLw006pTfLT36+6z31YI8nidOsIvFkR9TfO1P73WYqNWkedgCAAgSoI+D0jZ0mp9WP9/ryxisApEwJFCPgO1O9L/Q00tf//Jv+eUiQ4toEABDpD4EmK9Eoptf6r3x+/7Ie7/jvTJJsR6IZy81qpv6Gm9r9f1+mbA9l5BIEEAQjMIvAafbtTSq3f6vfHP2QeOMtrvkAgEQLPlR9+DK+/wab4/7fk49qJMMMNCEAglsA6Mu8Xi6XYV/X75McQnx2LCusQGE8gxXcF9O9Evf+vUhjPHB8KayEAgZYT8GVBT6Pb6xdS/nxvy+uC8FpAwI/d/VxKeUfq+eYR9ZGS3+lNggAEukPA+/zHpCacsXR/9ROJR/4EgZQ+gQ3k4hVS70Cb+ueF8nX39LHiIQQgUAKBp6mMi6TU+6Wef5fK1/VKiJsiIFAbgSfIUsrzA/R2rt6nfwl8UVq3NkIYggAE6iTgg+iXpN4+34TPRfJ3uzohYQsCZRF4gQpqyim2XmdwvXz2kwIrlgWBciAAgVACy8v6m6QbpN5+3oRP95285U8QSM0l8B653oSdbdDHc+X3c5qLHc8hAAER8JNJ50mD+3cTvr+LGoRA0wn4mftjpCbscMN8PE2++05hEgQg0BwCvs5/hjRsn27Csq/Id+YraU57w9MxBHw63XexNmHHG+XjyfJ/N4kEAQikS8A38/5SGrUfN2G5Z/pbIV3EeAaB/ARW0yZnSk3YAcf5+DvFsL/k64okCEAgnsD95MIekt+ON27fbcK63ygGv4iIBIHWEfBduOdLTdgRJ/m4QHH8q8S0nIJAgkAAAU8//g7pEmnS/tqE9X9RHJ6VkASB1hLYTJFdLDVhh8zio98v8G3JU3R6EiQSBCBQHQGfefPNuX7Nt/e9LPtoE/J4LpJNJBIEWk9gU0V4kdSEHTOPj39XTEdLPh3JYEAQSBAogYBP8e8kfULyFN559skm5PUZjM0lEgQ6Q2ALRbpQasIOWsRHd1RfkPaV5kkkCEAgO4G1lHU/6YvS1VKRfbAJ2yxQbPMlUgCBZQNsYnIpgS31788knxFoc/I7B3yD0snSqZIfLfSkJCQIQGAJAQ+Sd5B2lHaVHi+1fe77BYpxN+liiRRAgAFAAPQBk77u9SNpm4Hlbf56r4L7s+SnIv4k/XFG1+iTBIG2E1hfAT5yRo/Q57bSQ6X7SV1J3v+fLl3WlYBTjJMBQBq14vn3T5LcEXQ5eRpi/xpYMPPpSyS+r8C6VrpOukXyzU93SzdLJAhEE1hNDvieF9+g50fY1h7QZvo+X9p85rPrl8T+Txz8KnLv16RAAgwAAuEPmF5d30+Qdh1YzlcIQAACbSHgS57Pkxi8J1CjXTrllADusS7cpLU+Jfa/Y3OxEgIQgEAzCXxNbvtxYQ7+idRf228ySQRzZjd8s9zx0m3SUyTO0AgCCQIQaDQBP41wuHSg5Et3pEQIcIBJpCKGuOHH574krTRkHYsgAAEINIHAHXLyVdKXm+Bs13xkAJB2jW8r974l+SYiEgQgAIEmEbhczu4jndEkp7vkK/cApF3bZ8m97SS/SZAEAQhAoCkEfilH3Xdx8E+4xrgHIOHKmXFtkT6Pkfx40RMlztoIAgkCEEiSgK/3f0R6ueQbm0kJE+BgknDlDHHNTwkcJW0wZB2LIAABCEQS+JuMv1I6MdIJbGcnwAAgO6tUcnoWsS9KnkiDBAEIQCAFAj+VE/tLV6TgDD5kI8AlgGycUsp1q5zxJQFfGniS5BnISBCAAAQiCPgu/3+VXifxfH9EDUxhkzMAU8BLYNOHyYcvSI9PwBdcgAAEukXAN/j5lP+fuxV2e6LlKYBm1+U5cn976bWSzwyQIAABCFRNwBOVvV3aSeLgXzXtCsvnDECFcGsuemvZ+4z05JrtYg4CEOgOAT+S/Hrpr90Jub2RcgagPXV7nkLZTXqutLA9YREJBCCQAAHf3OdH+54qcfBPoELKcIGbAMugmFYZ58ud/5H8atLHSdSxIJAgAIFCBO7UVkdKL5D8Gl9SiwhwCaBFlTkklM207L3SSyXqegggFkEAAkMJ/ENLvym9Q7pgaA4WNp4AB4XGV2GmAHwm4IMS9wdkwkUmCHSawGmK/m3SqZ2m0IHguQegA5WsEH3qzvcHPEtibm5BIEEAAnMI+MD/DGlHiYP/HDztW8AZgPbVaZaI/PjOYdJTsmQmDwQg0GoCPtj7DCFT+La6mucGxwBgLpMuLdlVwb5V8pkBzgYJAgkCHSFwr+L8ruQb/H7ZkZgJc4AAA4ABIB39uqXifrX0L9IaHWVA2BDoAoFbFORXpY9Lf+lCwMQ4mgADgNFsurhmTQX9CulVkqcZJkEAAu0g8CeF8XnpS9KN7QiJKKYlwABgWoLt3X5bhfYa6UXSau0Nk8gg0FoCnrLXp/k/J/2ktVESWGECDAAKo+vMhqsq0j2k/STfIbyiRIIABNIkcLvc+oH0dek7Eu8IEQTScAIMAIZzYelwAr4/YE/Js4L5scJVJBIEIBBLYJHM+xe+J+45QbpJIkFgIgEGABMRkWEEgZW03I8T7i49T/LLiEgQgEA9BBbIzI8kH/hPknxzHwkCuQgwAMiFi8xjCGyldbtIT5J2lTaWSBCAQDkELlUxv+gTL+Qph2unS2EA0OnqrzR4P1r4RMk3E1qPkbiZUBBIEJhA4Gat/510pnSWdIZ0kUSCQKkEGACUipPCxhDwREM+S/BwyZcLtpmRl60ukSDQNQK+Vu/XeJ87I/9/jnS+5Il6SBColAADgErxUnhGAmsp30bSppIvHfj/daV5A1pZ33s3HvoeBH8nQSCagB+38933Tr4hz9+vH9A1+n6FdJm0cObTeUgQCCPw/wEq67pSHnYY8wAAAABJRU5ErkJggg==;" parent="1" vertex="1">
          <mxGeometry x="-82" y="700" width="94" height="94" as="geometry" />
        </mxCell>
        <mxCell id="vIerb1oqOkuDAjDOQs4c-272" style="edgeStyle=orthogonalEdgeStyle;rounded=0;orthogonalLoop=1;jettySize=auto;html=1;entryX=0;entryY=0.27;entryDx=0;entryDy=0;entryPerimeter=0;flowAnimation=1;" parent="1" source="vIerb1oqOkuDAjDOQs4c-235" target="vIerb1oqOkuDAjDOQs4c-264" edge="1">
          <mxGeometry relative="1" as="geometry" />
        </mxCell>
        <mxCell id="vIerb1oqOkuDAjDOQs4c-273" style="edgeStyle=orthogonalEdgeStyle;rounded=0;orthogonalLoop=1;jettySize=auto;html=1;entryX=0.29;entryY=0.5;entryDx=0;entryDy=0;entryPerimeter=0;flowAnimation=1;" parent="1" source="vIerb1oqOkuDAjDOQs4c-236" target="vIerb1oqOkuDAjDOQs4c-264" edge="1">
          <mxGeometry relative="1" as="geometry" />
        </mxCell>
      </root>
    </mxGraphModel>
  </diagram>
</mxfile>
